<?xml version="1.0" standalone="no"?>
<!DOCTYPE svg PUBLIC "-//W3C//DTD SVG 20010904//EN"
 "http://www.w3.org/TR/2001/REC-SVG-20010904/DTD/svg10.dtd">
<svg version="1.0" xmlns="http://www.w3.org/2000/svg"
 width="400.000000pt" height="200.000000pt" viewBox="0 0 400.000000 200.000000"
 preserveAspectRatio="xMidYMid meet">

<g transform="translate(0.000000,200.000000) scale(0.100000,-0.100000)"
fill="#000000" stroke="none">
<path d="M230 1571 c0 -28 0 -28 83 -37 68 -7 82 -12 81 -26 -1 -10 10 -21 27
-27 24 -8 31 -7 39 9 16 30 12 50 -19 81 -28 28 -33 29 -120 29 l-91 0 0 -29z"/>
<path d="M520 1435 l0 -165 35 0 35 0 0 165 0 165 -35 0 -35 0 0 -165z"/>
<path d="M620 1565 l0 -35 60 0 c52 0 64 -4 92 -29 24 -22 32 -37 32 -63 0
-47 -28 -87 -64 -95 -26 -5 -30 -10 -30 -39 0 -31 3 -34 29 -34 33 0 85 33
115 73 31 42 30 140 -3 186 -33 46 -92 71 -168 71 l-63 0 0 -35z"/>
<path d="M958 1584 c-51 -27 -63 -82 -28 -127 12 -16 45 -34 85 -47 36 -12 67
-25 70 -30 10 -15 -7 -40 -31 -46 -19 -5 -24 -13 -24 -39 0 -32 1 -33 33 -25
71 17 97 45 97 103 0 43 -29 70 -106 100 -35 14 -60 30 -62 40 -2 10 3 17 12
17 12 0 16 10 16 35 0 40 -16 45 -62 19z"/>
<path d="M1040 1569 c0 -27 6 -37 27 -47 25 -11 30 -10 51 12 l24 24 -23 15
c-13 9 -36 19 -51 22 -26 7 -28 5 -28 -26z"/>
<path d="M1180 1565 l0 -35 76 0 c86 0 114 -11 114 -44 0 -31 -30 -56 -68 -56
-30 0 -32 -2 -32 -35 0 -33 2 -35 35 -35 83 0 135 47 135 122 0 86 -48 118
-175 118 l-85 0 0 -35z"/>
<path d="M1560 1568 c-27 -77 -100 -291 -100 -294 0 -2 17 -4 39 -4 34 0 39 3
47 33 9 30 13 32 57 35 50 3 50 4 41 40 -5 16 -14 22 -35 22 -16 0 -29 2 -29
5 0 2 16 47 35 100 l34 95 -38 0 c-35 0 -40 -3 -51 -32z"/>
<path d="M1863 1580 c-36 -22 -60 -54 -73 -99 -9 -31 -8 -31 29 -31 33 0 39 4
54 35 19 39 55 54 93 36 21 -9 30 -8 49 6 32 24 31 30 -7 53 -42 25 -104 26
-145 0z"/>
<path d="M2070 1565 l0 -35 105 0 105 0 0 35 0 35 -105 0 -105 0 0 -35z"/>
<path d="M1656 1580 c-37 -93 -37 -91 2 -204 l37 -106 38 0 c32 0 37 3 33 18
-52 163 -105 304 -110 292z"/>
<path d="M230 1396 l0 -124 35 -4 35 -4 0 128 0 128 -35 0 -35 0 0 -124z"/>
<path d="M620 1391 l0 -119 35 -4 35 -4 0 123 0 123 -35 0 -35 0 0 -119z"/>
<path d="M1180 1390 l0 -120 40 0 40 0 0 120 0 120 -40 0 -40 0 0 -120z"/>
<path d="M2070 1430 l0 -80 35 0 35 0 0 80 0 80 -35 0 -35 0 0 -80z"/>
<path d="M320 1445 c0 -35 0 -35 44 -35 36 0 46 -4 51 -20 10 -31 -12 -50 -56
-50 -38 0 -39 -1 -39 -35 l0 -35 56 0 c48 0 59 4 85 29 59 59 30 148 -55 170
-76 19 -86 16 -86 -24z"/>
<path d="M2160 1435 l0 -35 50 0 50 0 0 35 0 35 -50 0 -50 0 0 -35z"/>
<path d="M1789 1397 c11 -46 26 -71 62 -101 42 -35 125 -37 164 -3 l26 22 -24
23 c-23 21 -25 22 -56 6 -31 -16 -34 -15 -59 3 -15 11 -31 34 -37 51 -8 28
-13 32 -46 32 -37 0 -37 0 -30 -33z"/>
<path d="M2485 1400 c4 -6 198 -10 550 -10 352 0 546 4 550 10 4 7 -182 10
-550 10 -368 0 -554 -3 -550 -10z"/>
<path d="M923 1336 l-27 -24 34 -21 c51 -30 80 -28 80 7 0 20 -8 32 -30 44
-29 17 -31 16 -57 -6z"/>
<path d="M2070 1305 l0 -35 105 0 105 0 0 35 0 35 -105 0 -105 0 0 -35z"/>
<path d="M2490 943 l0 -203 45 0 45 0 0 199 0 199 -45 4 -45 3 0 -202z"/>
<path d="M2615 1140 c-2 -4 -4 -95 -4 -203 l0 -197 44 0 45 0 0 199 0 199 -41
4 c-22 2 -42 1 -44 -2z"/>
<path d="M2830 1038 c0 -101 2 -112 36 -190 20 -46 38 -85 40 -87 2 -2 4 83 4
190 l0 194 -40 0 -40 0 0 -107z"/>
<path d="M2950 1103 l0 -43 130 0 130 0 0 39 0 40 -130 3 -130 3 0 -42z"/>
<path d="M3356 1139 c-59 -16 -125 -107 -126 -171 0 -26 3 -28 44 -28 42 0 44
1 50 35 4 19 20 48 37 64 25 25 30 37 27 69 -3 37 -4 38 -32 31z"/>
<path d="M3410 1108 c0 -37 4 -47 23 -55 45 -21 70 -108 48 -166 -13 -34 -50
-67 -76 -67 -27 0 -71 46 -80 83 -6 24 -11 27 -51 27 -51 0 -55 -13 -29 -78
31 -73 86 -112 160 -112 74 0 129 39 160 112 20 50 19 134 -4 183 -19 42 -82
105 -106 105 -7 0 -20 3 -29 6 -13 5 -16 -2 -16 -38z"/>
<path d="M2720 1039 c0 -88 2 -100 42 -196 l43 -103 43 0 c23 0 42 3 42 8 0 8
-159 374 -166 381 -2 2 -4 -38 -4 -90z"/>
<path d="M2950 890 l0 -150 45 0 45 0 0 150 0 150 -45 0 -45 0 0 -150z"/>
<path d="M3060 928 l0 -43 70 3 70 4 0 39 0 39 -70 0 -70 0 0 -42z"/>
<path d="M260 920 c0 -7 328 -10 965 -10 637 0 965 3 965 10 0 7 -328 10 -965
10 -637 0 -965 -3 -965 -10z"/>
<path d="M2360 780 l0 -50 50 0 50 0 0 50 0 50 -50 0 -50 0 0 -50z"/>
<path d="M901 483 c1 -27 4 -38 6 -26 2 12 12 24 21 26 15 4 15 5 0 6 -26 2
-22 29 5 34 19 4 18 4 -5 6 -27 1 -28 -1 -27 -46z"/>
<path d="M1061 483 c1 -37 3 -42 8 -23 l7 25 15 -22 c17 -27 34 -31 20 -5 -7
13 -7 22 1 30 17 17 1 42 -27 42 -23 0 -25 -3 -24 -47z m42 22 c1 -5 -6 -11
-15 -13 -11 -2 -18 3 -18 13 0 17 30 18 33 0z"/>
<path d="M1230 485 c0 -43 1 -45 28 -44 16 1 20 3 10 6 -10 2 -18 11 -18 18 0
7 8 16 18 18 16 4 16 5 0 6 -10 0 -18 7 -18 15 0 8 8 17 18 19 10 3 6 5 -10 6
-27 1 -28 -1 -28 -44z"/>
<path d="M1392 488 c3 -38 6 -43 28 -45 14 -1 18 0 8 3 -10 3 -18 12 -18 19 0
7 8 16 18 18 16 4 16 5 0 6 -10 0 -18 7 -18 15 0 8 8 17 18 19 10 3 6 5 -11 6
-27 1 -28 -1 -25 -41z"/>
<path d="M1682 488 c3 -40 5 -43 33 -43 28 0 30 2 30 40 0 38 -2 40 -33 43
l-33 3 3 -43z m48 17 c0 -8 -7 -15 -15 -15 -8 0 -15 7 -15 15 0 8 7 15 15 15
8 0 15 -7 15 -15z m3 -40 c1 -5 -6 -11 -15 -13 -11 -2 -18 3 -18 13 0 17 30
18 33 0z"/>
<path d="M1863 485 c0 -27 2 -38 4 -22 2 15 2 37 0 50 -2 12 -4 0 -4 -28z"/>
<path d="M1990 485 c0 -40 2 -45 23 -45 30 0 47 18 47 51 0 27 -15 39 -51 39
-16 0 -19 -7 -19 -45z m57 19 c8 -20 -8 -48 -31 -52 -12 -3 -16 4 -16 32 0 30
4 36 20 36 11 0 23 -7 27 -16z"/>
<path d="M2300 485 c0 -25 5 -45 10 -45 6 0 10 9 10 20 0 13 7 20 20 20 14 0
20 -7 20 -22 0 -12 3 -18 6 -15 10 9 11 87 2 87 -5 0 -8 -9 -8 -20 0 -13 -7
-20 -20 -20 -13 0 -20 7 -20 20 0 11 -4 20 -10 20 -5 0 -10 -20 -10 -45z"/>
<path d="M2493 485 c0 -27 2 -38 4 -22 2 15 2 37 0 50 -2 12 -4 0 -4 -28z"/>
<path d="M2615 520 c-9 -14 13 -40 32 -40 8 0 13 -6 10 -12 -2 -7 -15 -12 -28
-11 l-24 3 22 -12 c17 -8 26 -8 37 1 18 15 11 37 -15 44 -10 3 -19 11 -19 17
0 7 8 10 20 7 11 -3 20 -1 20 4 0 13 -47 11 -55 -1z"/>
<path d="M2792 523 c12 -3 18 -17 21 -46 l4 -42 1 42 c2 30 7 43 20 46 9 3 -1
5 -23 5 -22 0 -32 -2 -23 -5z"/>
<path d="M2962 518 c-36 -36 7 -91 54 -69 42 19 26 81 -21 81 -12 0 -26 -5
-33 -12z m57 -12 c25 -30 -16 -67 -44 -40 -11 12 -12 20 -5 35 12 22 33 25 49
5z"/>
<path d="M3151 483 c1 -27 4 -38 6 -25 5 27 20 29 28 2 3 -11 11 -20 16 -20 6
0 6 7 0 18 -7 13 -7 22 1 30 17 17 1 42 -27 42 -23 0 -25 -3 -24 -47z m42 22
c1 -5 -6 -11 -15 -13 -11 -2 -18 3 -18 13 0 17 30 18 33 0z"/>
<path d="M3335 500 c8 -16 15 -37 16 -47 0 -12 3 -9 8 8 5 14 14 35 20 47 7
13 8 22 2 22 -5 0 -13 -10 -17 -22 l-7 -23 -10 23 c-6 12 -14 22 -19 22 -5 0
-2 -13 7 -30z"/>
<path d="M620 485 c0 -8 7 -15 15 -15 8 0 15 7 15 15 0 8 -7 15 -15 15 -8 0
-15 -7 -15 -15z"/>
<path d="M660 330 c-6 -12 -8 -30 -5 -40 8 -25 50 -37 70 -20 20 17 12 24 -12
12 -26 -14 -45 0 -41 29 3 21 8 24 38 21 26 -1 31 0 20 8 -25 16 -59 11 -70
-10z"/>
<path d="M848 326 c-9 -22 -8 -29 7 -46 35 -38 79 -16 73 37 -2 23 -8 29 -35
31 -27 3 -35 -1 -45 -22z m70 -12 c4 -29 -23 -51 -43 -34 -16 13 -20 42 -8 54
14 14 48 1 51 -20z"/>
<path d="M1040 305 c0 -25 5 -45 10 -45 6 0 10 9 10 20 0 13 7 20 19 20 10 0
21 6 23 13 9 23 -4 37 -33 37 -28 0 -29 -2 -29 -45z m50 20 c0 -8 -7 -15 -15
-15 -8 0 -15 7 -15 15 0 8 7 15 15 15 8 0 15 -7 15 -15z"/>
<path d="M1231 328 c-5 -13 -12 -34 -16 -48 -6 -20 -5 -23 6 -12 7 6 21 12 30
12 10 0 19 -6 22 -12 2 -7 7 -10 11 -7 8 7 -25 89 -36 89 -5 0 -12 -10 -17
-22z m29 -24 c0 -8 -4 -14 -10 -14 -5 0 -10 9 -10 21 0 11 5 17 10 14 6 -3 10
-13 10 -21z"/>
<path d="M1401 303 c1 -37 3 -42 8 -23 l7 25 15 -22 c17 -27 34 -31 20 -5 -7
13 -7 22 1 30 17 17 1 42 -27 42 -23 0 -25 -3 -24 -47z m42 22 c1 -5 -6 -11
-15 -13 -11 -2 -18 3 -18 13 0 17 30 18 33 0z"/>
<path d="M1578 343 c7 -2 12 -22 12 -44 0 -21 5 -39 10 -39 6 0 10 18 10 39 0
22 5 42 13 44 6 3 -4 5 -23 5 -19 0 -29 -2 -22 -5z"/>
<path d="M1877 305 c-9 -25 -12 -45 -6 -45 5 0 9 5 9 10 0 14 33 13 48 -2 9
-9 12 -9 12 0 0 22 -29 82 -39 82 -5 0 -16 -20 -24 -45z m31 -14 c-15 -5 -21
7 -13 26 7 17 8 17 15 -2 4 -11 3 -22 -2 -24z"/>
<path d="M2050 306 c0 -50 19 -64 22 -16 0 17 1 35 2 42 1 6 -5 13 -11 16 -9
2 -13 -10 -13 -42z"/>
<path d="M2109 320 c-1 -16 -2 -35 -3 -42 -1 -6 5 -13 12 -15 8 -3 12 9 12 41
0 50 -19 64 -21 16z"/>
<path d="M2240 305 c0 -41 2 -45 24 -45 25 0 56 23 56 41 0 27 -22 49 -50 49
-29 0 -30 -2 -30 -45z m58 4 c2 -17 -3 -29 -13 -33 -25 -9 -35 1 -35 35 0 26
3 30 23 27 15 -2 23 -11 25 -29z"/>
<path d="M2550 305 c0 -25 5 -45 10 -45 6 0 10 20 10 45 0 25 -4 45 -10 45 -5
0 -10 -20 -10 -45z"/>
<path d="M2692 311 c-15 -49 -15 -58 0 -43 15 15 48 16 48 2 0 -5 4 -10 9 -10
6 0 3 20 -6 45 -18 55 -36 57 -51 6z m38 -13 c0 -5 -7 -8 -15 -8 -17 0 -18 2
-9 25 5 13 8 14 15 3 5 -7 9 -16 9 -20z"/>
<path d="M2881 328 c-5 -13 -12 -34 -16 -48 -6 -20 -5 -23 6 -12 7 6 21 12 30
12 10 0 19 -6 22 -12 2 -7 7 -10 11 -7 8 7 -25 89 -36 89 -5 0 -12 -10 -17
-22z m29 -24 c0 -8 -4 -14 -10 -14 -5 0 -10 9 -10 21 0 11 5 17 10 14 6 -3 10
-13 10 -21z"/>
<path d="M3053 305 c0 -27 2 -38 4 -22 2 15 2 37 0 50 -2 12 -4 0 -4 -28z"/>
<path d="M2080 311 c0 -5 5 -13 10 -16 6 -3 10 -2 10 4 0 5 -4 13 -10 16 -5 3
-10 2 -10 -4z"/>
<path d="M3310 305 c0 -8 7 -15 15 -15 8 0 15 7 15 15 0 8 -7 15 -15 15 -8 0
-15 -7 -15 -15z"/>
</g>
</svg>
