<?xml version="1.0" encoding="UTF-8" standalone="no"?>
<svg
   xmlns:dc="http://purl.org/dc/elements/1.1/"
   xmlns:cc="http://creativecommons.org/ns#"
   xmlns:rdf="http://www.w3.org/1999/02/22-rdf-syntax-ns#"
   xmlns:svg="http://www.w3.org/2000/svg"
   xmlns="http://www.w3.org/2000/svg"
   xmlns:sodipodi="http://sodipodi.sourceforge.net/DTD/sodipodi-0.dtd"
   xmlns:inkscape="http://www.inkscape.org/namespaces/inkscape"
   version="1.1"
   id="svg2"
   xml:space="preserve"
   width="914.14667"
   height="522.69336"
   viewBox="0 0 914.14667 522.69336"
   sodipodi:docname="3339153.eps"><metadata
     id="metadata8"><rdf:RDF><cc:Work
         rdf:about=""><dc:format>image/svg+xml</dc:format><dc:type
           rdf:resource="http://purl.org/dc/dcmitype/StillImage" /></cc:Work></rdf:RDF></metadata><defs
     id="defs6" /><sodipodi:namedview
     pagecolor="#ffffff"
     bordercolor="#666666"
     borderopacity="1"
     objecttolerance="10"
     gridtolerance="10"
     guidetolerance="10"
     inkscape:pageopacity="0"
     inkscape:pageshadow="2"
     inkscape:window-width="640"
     inkscape:window-height="480"
     id="namedview4" /><g
     id="g10"
     inkscape:groupmode="layer"
     inkscape:label="ink_ext_XXXXXX"
     transform="matrix(1.3333333,0,0,-1.3333333,0,522.69333)"><g
       id="g12"
       transform="scale(0.1)"><path
         d="m 6536.85,2656.7 c 25.4,-26.12 36.4,-64.05 34.78,-100.45 -1.63,-36.4 -14.84,-71.47 -32.4,-103.39 -33.97,-61.78 -97.66,-112.05 -158.58,-147.53 -34.99,70.04 -13.41,158.26 0.35,202.33 21.76,69.65 103.36,182.32 155.85,149.04"
         style="fill:#e7e8e5;fill-opacity:1;fill-rule:nonzero;stroke:none"
         id="path14" /><path
         d="m 6400.12,2172.33 c 6.32,40.21 38.06,74.11 76.47,87.61 38.4,13.49 82.03,7.95 118.39,-10.35 16.8,-8.46 33.48,-21.23 37.54,-39.61 3.8,-17.18 -4.9,-35.4 -18.36,-46.72 -13.47,-11.32 -30.95,-16.74 -48.29,-19.73 -59.47,-10.23 -118.89,-9.21 -165.75,28.8"
         style="fill:#e7e8e5;fill-opacity:1;fill-rule:nonzero;stroke:none"
         id="path16" /><path
         d="m 6248.5,2002.42 c -0.3,0.21 2.39,4.63 7.41,12.5 5.56,8.65 12.75,19.84 21.38,33.27 18.39,27.58 43.84,67.47 84.38,99.68 40.19,32.23 85.08,49.68 118.52,53.76 16.7,2.26 30.42,2.06 39.75,1.05 4.68,-0.3 8.27,-1.16 10.7,-1.52 2.42,-0.44 3.68,-0.77 3.66,-0.94 -0.05,-1.21 -20.76,3.24 -53.56,-2.16 -32.68,-4.92 -76.36,-22.5 -115.88,-54.18 -39.74,-31.53 -65.42,-70.62 -84.57,-97.71 -9.49,-13.72 -17.2,-24.84 -22.74,-32.37 -5.52,-7.54 -8.78,-11.58 -9.05,-11.38"
         style="fill:#dadbd8;fill-opacity:1;fill-rule:nonzero;stroke:none"
         id="path18" /><path
         d="m 6482.28,2565.4 c 0.17,-0.05 -0.43,-2.15 -1.72,-6.08 -1.51,-4.42 -3.47,-10.09 -5.87,-17.1 -5.18,-14.83 -12.97,-36.18 -22.8,-62.48 -19.66,-52.61 -47.83,-124.91 -80.73,-204.03 -32.94,-79.14 -64.38,-150.1 -87.83,-201.12 -11.73,-25.52 -21.39,-46.08 -28.25,-60.21 -3.28,-6.65 -5.93,-12.03 -8,-16.22 -1.87,-3.69 -2.93,-5.59 -3.1,-5.51 -0.16,0.07 0.6,2.11 2.17,5.94 1.84,4.29 4.2,9.8 7.12,16.62 6.58,14.96 15.65,35.6 26.75,60.86 22.61,51.38 53.5,122.51 86.42,201.6 32.88,79.07 61.57,151.11 82.08,203.36 10.09,25.68 18.33,46.67 24.31,61.88 2.77,6.88 5.02,12.44 6.76,16.77 1.61,3.81 2.53,5.79 2.69,5.72"
         style="fill:#dadbd8;fill-opacity:1;fill-rule:nonzero;stroke:none"
         id="path20" /><path
         d="m 6289.51,2171.68 c 19.8,83.5 -3.9,176.08 -61.39,239.79 -14.64,16.22 -36.1,31.72 -56.66,24.32 -20.6,-7.42 -27.26,-33.18 -27.67,-55.06 -1.71,-91.06 57.6,-180.22 142.24,-213.85"
         style="fill:#e7e8e5;fill-opacity:1;fill-rule:nonzero;stroke:none"
         id="path22" /><path
         d="m 6211.7,2346.39 c 0.27,0.23 3.63,-3.26 9.51,-9.81 2.96,-3.26 6.57,-7.26 10.21,-12.35 3.64,-5.08 8.34,-10.5 12.36,-17.29 4.23,-6.65 9.04,-13.85 13.17,-22.18 4.61,-8.07 8.57,-17.15 12.7,-26.75 7.75,-19.38 14.49,-41.48 18.19,-65.34 3.47,-23.91 3.61,-47.03 1.79,-67.83 -1.23,-10.38 -2.36,-20.25 -4.54,-29.29 -1.61,-9.16 -4.2,-17.42 -6.44,-24.98 -1.98,-7.65 -5.03,-14.14 -7.17,-20.01 -2.11,-5.9 -4.52,-10.72 -6.52,-14.64 -3.94,-7.88 -6.25,-12.14 -6.57,-11.98 -1.05,0.48 8.2,17.7 16.79,47.66 1.99,7.53 4.36,15.72 5.75,24.77 1.98,8.95 2.92,18.67 4.02,28.89 1.52,20.48 1.25,43.16 -2.16,66.64 -3.64,23.45 -10.12,45.18 -17.5,64.35 -3.95,9.49 -7.71,18.51 -12.1,26.55 -3.91,8.29 -8.47,15.5 -12.45,22.2 -16.54,26.43 -29.89,40.66 -29.04,41.39"
         style="fill:#dadbd8;fill-opacity:1;fill-rule:nonzero;stroke:none"
         id="path24" /><path
         d="m 322.824,3280.01 c 0,0 -92.019,-29.67 -2.785,-226.93 89.234,-197.27 152.848,-295.84 152.848,-295.84 0,0 15.328,-45.54 -22.645,-50.72 -9.996,-1.36 -23.066,-1.18 -37.238,-1 -39.664,0.51 -87.996,1.02 -101.945,-32.34 -19.641,-46.96 12.945,-93.66 81.453,-136.51 68.504,-42.85 215.156,-142.22 228.383,-151.26 12.984,-8.87 25.414,-30.31 0.113,-37.98 -25.305,-7.68 -212.672,-18.38 -202.278,-106.98 10.395,-88.61 220.86,-176.61 243.684,-186.67 22.82,-10.06 27.918,-20.17 25.426,-32.84 -2.492,-12.67 -65.813,-10.33 -118.985,-15.56 -53.16,-5.23 -113.898,-20.6 -103.613,-71.23 10.281,-50.61 132.176,-161.67 438.742,-206.33 l 143.406,-11.39 83.86,117.66 c 164.14,262.76 158.21,427.55 126.24,468.13 -31.96,40.57 -82.96,4.18 -121.32,-33.01 -38.36,-37.18 -77.51,-87 -88.79,-80.71 -11.28,6.28 -15.7,16.71 -8.62,40.63 7.08,23.92 76.01,241.37 15.13,306.59 -60.87,65.22 -190.167,-70.82 -212.382,-85.16 -22.215,-14.34 -30.531,9.01 -28.906,24.65 1.656,15.93 20.648,192.06 32.257,272.02 11.602,79.97 -2.961,135.02 -51.484,150.4 -46.793,14.83 -86.926,-59.01 -115.426,-84.63 -28.5,-25.62 -53.332,15.51 -53.332,15.51 0,0 -34.074,112.26 -126.879,307.88 -92.8,195.6 -176.742,142.89 -176.742,142.89 l 1.828,0.73"
         style="fill:#e7e8e5;fill-opacity:1;fill-rule:nonzero;stroke:none"
         id="path26" /><path
         d="m 1053.24,1682.28 c -67.588,143.94 -183.42,401.76 -284.021,622.6 -100.567,220.76 -191.801,420.55 -258.653,564.81 -33.449,71.97 -60.539,130.27 -79.351,170.76 -9.297,20.03 -16.535,35.65 -21.547,46.44 -2.359,5.2 -4.184,9.23 -5.496,12.13 -1.219,2.74 -1.738,4.2 -1.738,4.2 0,0 0.793,-1.33 2.144,-4.01 1.414,-2.84 3.371,-6.81 5.906,-11.94 5.18,-10.7 12.68,-26.2 22.297,-46.08 19.328,-40.05 46.875,-98.19 80.649,-170.17 67.59,-143.93 159.289,-343.53 259.851,-564.29 100.602,-220.84 215.977,-478.85 282.829,-623.11"
         style="fill:#dadbd8;fill-opacity:1;fill-rule:nonzero;stroke:none"
         id="path28" /><path
         d="m 425.191,2644.6 c 0.122,0.28 3.633,-0.89 9.887,-3.26 6.266,-2.34 15.219,-6 26.246,-10.62 22.031,-9.28 52.133,-22.86 85.078,-38.46 32.43,-15.5 61.758,-29.51 84.196,-40.23 10.14,-4.77 18.695,-8.79 25.574,-12.03 6.055,-2.81 9.351,-4.5 9.234,-4.79 -0.113,-0.28 -3.633,0.86 -9.914,3.19 -6.258,2.36 -15.222,6.01 -26.199,10.75 -21.945,9.5 -51.859,23.48 -84.801,39.07 -32.523,15.26 -61.937,29.06 -84.441,39.62 -10.172,4.71 -18.758,8.69 -25.656,11.9 -6.04,2.86 -9.321,4.57 -9.204,4.86"
         style="fill:#dadbd8;fill-opacity:1;fill-rule:nonzero;stroke:none"
         id="path30" /><path
         d="m 675.652,2543.93 c -1.136,0.48 24.149,63.77 56.473,141.35 32.328,77.61 59.453,140.12 60.594,139.65 1.14,-0.47 -24.141,-63.75 -56.473,-141.37 -32.32,-77.58 -59.453,-140.1 -60.594,-139.63"
         style="fill:#dadbd8;fill-opacity:1;fill-rule:nonzero;stroke:none"
         id="path32" /><path
         d="m 814.824,2197.89 c -0.234,0.2 2.008,3.26 6.25,8.59 4.856,6.03 10.914,13.56 18.11,22.49 15.261,19 36.226,45.33 58.293,75.22 22.136,29.86 41.234,57.58 54.894,77.75 6.449,9.49 11.867,17.49 16.215,23.89 3.859,5.62 6.117,8.66 6.379,8.5 0.265,-0.17 -1.496,-3.52 -4.91,-9.43 -3.414,-5.91 -8.508,-14.37 -15.035,-24.69 -13.008,-20.65 -31.747,-48.73 -53.954,-78.68 -22.128,-29.98 -43.546,-56.07 -59.457,-74.58 -7.992,-9.23 -14.539,-16.62 -19.214,-21.6 -4.657,-4.99 -7.336,-7.66 -7.571,-7.46"
         style="fill:#dadbd8;fill-opacity:1;fill-rule:nonzero;stroke:none"
         id="path34" /><path
         d="m 568.238,2239.08 c 0.043,0.3 3.535,0.06 9.805,-0.63 7.199,-0.91 16.051,-2.03 26.48,-3.35 22.332,-3.04 53.133,-7.52 87.114,-12.75 33.988,-5.23 64.715,-10.22 86.929,-14.04 10.344,-1.88 19.122,-3.47 26.262,-4.76 6.188,-1.23 9.586,-2.05 9.535,-2.35 -0.047,-0.31 -3.535,-0.07 -9.797,0.63 -7.203,0.91 -16.05,2.03 -26.484,3.35 -22.328,3.03 -53.137,7.52 -87.125,12.75 -33.98,5.23 -64.707,10.21 -86.914,14.04 -10.348,1.88 -19.125,3.47 -26.27,4.76 -6.187,1.22 -9.585,2.04 -9.535,2.35"
         style="fill:#dadbd8;fill-opacity:1;fill-rule:nonzero;stroke:none"
         id="path36" /><path
         d="m 652.285,1917.98 c 0.043,0.31 4.508,-0.04 12.539,-0.93 8.848,-1.08 20.254,-2.49 33.949,-4.17 28.645,-3.72 68.172,-9.17 111.778,-15.46 43.629,-6.29 83.086,-12.23 111.613,-16.75 13.613,-2.25 24.953,-4.13 33.75,-5.58 7.953,-1.42 12.328,-2.35 12.285,-2.65 -0.047,-0.3 -4.508,0.04 -12.535,0.93 -8.848,1.09 -20.254,2.49 -33.949,4.18 -28.645,3.72 -68.176,9.16 -111.797,15.45 -43.613,6.29 -83.066,12.22 -111.594,16.75 -13.613,2.25 -24.957,4.13 -33.75,5.58 -7.953,1.42 -12.332,2.35 -12.289,2.65"
         style="fill:#dadbd8;fill-opacity:1;fill-rule:nonzero;stroke:none"
         id="path38" /><path
         d="m 960.953,1875.65 c -0.242,0.2 2.488,4.14 7.641,11.1 5.652,7.57 13.039,17.43 21.933,29.32 18.483,24.79 43.893,59.12 70.873,97.81 27.04,38.66 50.59,74.29 67.46,100.2 8.12,12.44 14.85,22.77 20.01,30.69 4.75,7.22 7.51,11.14 7.77,10.98 0.27,-0.16 -1.99,-4.39 -6.29,-11.9 -4.3,-7.51 -10.69,-18.28 -18.82,-31.46 -16.2,-26.37 -39.38,-62.35 -66.47,-101.07 -27.02,-38.76 -52.88,-72.85 -72.029,-97.17 -9.609,-12.13 -17.48,-21.88 -23.074,-28.49 -5.57,-6.62 -8.766,-10.19 -9.004,-10.01"
         style="fill:#dadbd8;fill-opacity:1;fill-rule:nonzero;stroke:none"
         id="path40" /><path
         d="m 3296.9,2096.95 c -256.2,128.93 -352.61,423.06 -382.61,695.65 -5.02,45.49 -16.89,92.51 -1.1,135.35 15.81,42.84 62.14,77.25 105.43,64.03 35.92,-10.96 56.22,-47.96 79.71,-77.59 31.25,-39.42 73.69,-69.64 120.85,-86.07 31,-10.8 67.99,-14.79 94.19,5.02 35.94,27.2 32.74,81.82 25.96,126.82 -12.67,83.86 -25.32,167.72 -37.98,251.56 -6.79,44.99 -13.57,90.95 -5.74,135.72 7.83,44.76 33.04,88.94 74.14,107.13 41.11,18.19 97.66,1.15 113.07,-41.62 6.41,-17.8 5.44,-37.38 9.38,-55.89 3.96,-18.52 15.66,-37.93 34.16,-40.58 18.74,-2.68 34.91,12.7 46.47,27.82 39.91,52.18 62.99,115.32 84.04,177.83 21.05,62.51 41.05,126.28 76.05,181.97 35,55.69 87.66,103.42 151.63,116.4 63.97,12.98 138.43,-16.9 163.88,-77.86 25.53,-61.12 -2.2,-130.89 -35.08,-188.1 -48.77,-84.9 -109.76,-162.55 -180.45,-229.76 -12.74,-12.13 -26.56,-25.24 -29.57,-42.7 -5.44,-31.44 27.32,-57.14 58.38,-62.73 35.19,-6.33 71.11,2.43 106.81,3.37 35.71,0.94 76,-9.05 94.07,-40.32 25.1,-43.36 -6.42,-97.17 -39.72,-134.24 -66.7,-74.25 -146.09,-136.75 -233.59,-183.96 -31.37,-16.91 -64.7,-32.58 -88.04,-59.71 -23.35,-27.15 -33.63,-69.95 -12.91,-99.33 20.75,-29.42 63.64,-33.58 97.41,-22.12 33.75,11.44 62.1,34.77 93.36,52.02 58.5,32.31 139.04,39.59 186.41,-8.16 31.14,-31.39 40.51,-80.01 33.39,-123.82 -7.11,-43.82 -28.62,-83.78 -52.19,-121.17 -82.36,-130.71 -195.79,-242.75 -332.16,-313.28 -136.36,-70.53 -267.44,-103.24 -417.65,-71.68"
         style="fill:#f3f2f1;fill-opacity:1;fill-rule:nonzero;stroke:none"
         id="path42" /><path
         d="m 3342.34,2277.11 c 20.14,142.67 55.17,297.22 97.37,457.6 10.71,40.05 21.27,79.63 31.69,118.64 10.49,38.91 20.89,77.51 33.4,114.62 24.69,74.36 54.09,143.96 84.07,209.16 29.96,65.24 60.77,126.06 89.99,182.71 29.36,56.61 57.72,108.87 85.59,155.38 55.47,93.3 109.02,163.1 147.73,209.53 19.32,23.29 34.89,40.86 45.61,52.62 5.16,5.6 9.22,10 12.26,13.31 2.81,2.96 4.29,4.43 4.4,4.33 0.12,-0.1 -1.16,-1.76 -3.75,-4.91 -2.9,-3.45 -6.76,-8.03 -11.65,-13.86 -10.3,-12.12 -25.45,-30.03 -44.37,-53.6 -37.88,-47 -90.5,-117.11 -145.16,-210.51 -27.47,-46.58 -55.46,-98.87 -84.5,-155.55 -28.93,-56.76 -59.47,-117.59 -89.17,-182.75 -29.7,-65.13 -58.83,-134.54 -83.28,-208.52 -12.38,-36.93 -22.65,-75.2 -33.14,-114.21 -10.4,-38.99 -20.95,-78.55 -31.63,-118.58 -42.16,-160.26 -77.34,-314.38 -97.85,-456.55"
         style="fill:#dadbd8;fill-opacity:1;fill-rule:nonzero;stroke:none"
         id="path44" /><path
         d="m 3507.11,2968.63 c -0.53,-0.17 -3.06,6.45 -7.17,18.58 -4.16,12.1 -9.61,29.8 -16.01,51.77 -12.85,43.92 -28.52,105.18 -45.56,172.77 -17.02,67.64 -33.52,128.49 -47,172.09 -6.68,21.82 -12.26,39.43 -16.28,51.55 -3.95,12.15 -5.89,18.97 -5.34,19.18 0.54,0.21 3.49,-6.22 8.38,-18.05 4.97,-11.81 11.44,-29.17 18.84,-50.83 14.98,-43.29 32.46,-104.15 49.5,-171.85 16.63,-66.75 31.67,-127.14 43.16,-173.28 5.32,-20.81 9.83,-38.35 13.43,-52.42 3.13,-12.39 4.62,-19.34 4.05,-19.51"
         style="fill:#dadbd8;fill-opacity:1;fill-rule:nonzero;stroke:none"
         id="path46" /><path
         d="m 4070.45,3160.53 c 0.1,-0.57 -7.99,-2.72 -22.69,-6.1 -14.67,-3.47 -35.91,-8.38 -61.95,-15.28 -52.21,-13.39 -123.68,-34.41 -201.5,-61.05 -77.81,-26.79 -147.19,-54.03 -196.8,-75.18 -24.89,-10.4 -44.8,-19.37 -58.6,-25.47 -13.78,-6.17 -21.52,-9.34 -21.8,-8.82 -0.25,0.54 7.02,4.69 20.39,11.8 13.4,7.02 32.99,16.84 57.65,27.99 49.14,22.62 118.42,50.83 196.46,77.71 78.05,26.71 150.06,46.91 202.78,58.83 26.32,6.19 47.82,10.22 62.74,12.7 14.93,2.39 23.21,3.46 23.32,2.87"
         style="fill:#dadbd8;fill-opacity:1;fill-rule:nonzero;stroke:none"
         id="path48" /><path
         d="m 3347.92,2288.8 c -0.25,-0.16 -1.95,2.07 -4.99,6.48 -3.5,5.28 -7.76,11.72 -12.93,19.52 -11.15,17 -26.65,42.01 -45.39,73.16 -37.52,62.29 -86.64,149.97 -139.53,247.44 -52.94,97.52 -101.17,185.53 -137.34,248.51 -17.68,30.6 -32.24,55.77 -43.05,74.48 -4.65,8.13 -8.47,14.83 -11.61,20.34 -2.57,4.68 -3.8,7.22 -3.56,7.39 0.25,0.15 1.95,-2.09 5,-6.49 3.49,-5.29 7.76,-11.71 12.92,-19.51 11.15,-16.99 26.65,-42.01 45.39,-73.16 37.52,-62.29 86.64,-149.97 139.56,-247.48 52.91,-97.49 101.15,-185.49 137.31,-248.48 17.7,-30.59 32.24,-55.77 43.05,-74.47 4.65,-8.13 8.47,-14.84 11.61,-20.33 2.57,-4.71 3.8,-7.25 3.56,-7.4"
         style="fill:#dadbd8;fill-opacity:1;fill-rule:nonzero;stroke:none"
         id="path50" /><path
         d="m 4081.45,2647.98 c 0.11,-0.28 -2.37,-1.73 -7.19,-4.26 -5.72,-2.88 -12.74,-6.42 -21.26,-10.71 -19.67,-9.68 -46.22,-22.74 -78.52,-38.61 -66.31,-32.62 -157.36,-78.72 -257.9,-129.79 -100.58,-51.1 -192.15,-96.4 -259.15,-127.65 -33.49,-15.64 -60.72,-28.02 -79.71,-36.18 -8.78,-3.72 -16.03,-6.78 -21.92,-9.28 -5.05,-2.04 -7.77,-2.97 -7.88,-2.7 -0.12,0.27 2.36,1.72 7.18,4.26 5.71,2.87 12.74,6.41 21.26,10.7 19.67,9.68 46.21,22.72 78.52,38.61 66.3,32.61 157.37,78.72 257.94,129.81 100.54,51.09 192.11,96.38 259.1,127.63 33.5,15.64 60.72,28.02 79.73,36.19 8.77,3.71 16.01,6.79 21.91,9.27 5.05,2.04 7.75,2.97 7.89,2.71"
         style="fill:#dadbd8;fill-opacity:1;fill-rule:nonzero;stroke:none"
         id="path52" /><path
         d="m 5190.22,3184.99 c -117.49,-68.31 -236.56,57.96 -172.16,182.58 8.57,16.57 21.68,30.49 37.31,39.58 117.51,68.32 236.59,-57.97 172.16,-182.58 -8.56,-16.58 -21.68,-30.49 -37.31,-39.58 z m 164.21,141.98 c 0,163.15 -171.43,266.51 -346.2,184.73 -39.48,-18.47 -72.13,-49.73 -91.97,-88.15 -43.97,-85.18 -24.56,-182.45 15.33,-263.21 L 5067.6,2815.6 c 19.61,-49.68 90.03,-49.39 109.22,0.46 l 133.37,346.54 c 46.17,105.54 44.24,164.37 44.24,164.37"
         style="fill:#f3f2f1;fill-opacity:1;fill-rule:nonzero;stroke:none"
         id="path54" /><path
         d="M 6771.85,2.60938 C 6771.85,1.17188 5272.05,0 3422.38,0 1572.06,0 72.5781,1.17188 72.5781,2.60938 c 0,1.42968 1499.4819,2.60156 3349.8019,2.60156 1849.67,0 3349.47,-1.17188 3349.47,-2.60156"
         style="fill:#17282f;fill-opacity:1;fill-rule:nonzero;stroke:none"
         id="path56" /><path
         d="M 2913.84,2.60938 1584.64,8.76172 C 1424.78,9.48828 1295.76,139.66 1296.44,299.52 l 14.08,3332.35 c 0.68,159.95 130.92,289.05 290.88,288.31 l 1329.21,-6.13 c 159.86,-0.75 288.87,-130.91 288.2,-290.77 L 3204.72,290.93 C 3204.04,130.98 3073.8,1.87109 2913.84,2.60938"
         style="fill:#33535f;fill-opacity:1;fill-rule:nonzero;stroke:none"
         id="path58" /><path
         d="m 2928.71,3799.04 -257.71,1.19 c -34.55,0.16 -62.71,-29.01 -62.85,-65.13 l -0.21,-46.75 c -0.14,-36.13 -28.29,-65.29 -62.84,-65.13 l -502.34,2.32 c -34.56,0.16 -62.45,29.58 -62.3,65.71 l 0.2,46.75 c 0.15,36.13 -27.75,65.55 -62.31,65.71 l -90.63,0.42 -225.56,1.03 c -112.02,0.52 -203.24,-89.89 -203.71,-201.92 L 1384.7,350.629 C 1384.22,238.66 1474.57,147.5 1586.54,146.98 l 1326.55,-6.121 c 112.01,-0.519 203.23,89.903 203.71,201.922 l 13.75,3252.629 c 0.47,111.95 -89.88,203.11 -201.84,203.63"
         style="fill:#fafaf9;fill-opacity:1;fill-rule:nonzero;stroke:none"
         id="path60" /><path
         d="m 1396.8,3212.93 h 217.4 l 194.05,-194.05 -201.7,-201.7 -207.45,207.45 -2.3,188.3"
         style="fill:#e7e8e5;fill-opacity:1;fill-rule:nonzero;stroke:none"
         id="path62" /><path
         d="m 1852.51,3103.99 -108.94,108.94 h 245.11 z"
         style="fill:#e7e8e5;fill-opacity:1;fill-rule:nonzero;stroke:none"
         id="path64" /><path
         d="m 1947.83,3015.05 190.85,190.85 h 667.04 c 0,0 102.13,-455.96 -299.58,-748.73 l -558.31,557.88"
         style="fill:#e7e8e5;fill-opacity:1;fill-rule:nonzero;stroke:none"
         id="path66" /><path
         d="m 1866.12,2954.2 -204.25,-204.26 565.11,-565.12 204.26,211.07 -565.12,558.31"
         style="fill:#e7e8e5;fill-opacity:1;fill-rule:nonzero;stroke:none"
         id="path68" /><path
         d="m 1394.35,2634.19 127.94,132.77 -125.49,125.5 z"
         style="fill:#e7e8e5;fill-opacity:1;fill-rule:nonzero;stroke:none"
         id="path70" /><path
         d="m 1598.89,2688.66 -196.6,-196.6 v -273.19 l 405.96,-415.33 343.83,320 -553.19,565.12"
         style="fill:#e7e8e5;fill-opacity:1;fill-rule:nonzero;stroke:none"
         id="path72" /><path
         d="m 2582.03,2399.87 c 0,0 421.13,308.79 284.96,806.03 h 261.92 l -3.19,-1403.56 -543.69,597.53"
         style="fill:#e7e8e5;fill-opacity:1;fill-rule:nonzero;stroke:none"
         id="path74" /><path
         d="m 2503.07,2318.85 -203.69,-212.63 624.48,-624.48 191,202.4 -611.79,634.71"
         style="fill:#e7e8e5;fill-opacity:1;fill-rule:nonzero;stroke:none"
         id="path76" /><path
         d="m 2214.33,2048.02 -320.07,-317.84 640.14,-635.66 319.47,308.88 -639.54,644.62"
         style="fill:#e7e8e5;fill-opacity:1;fill-rule:nonzero;stroke:none"
         id="path78" /><path
         d="M 2046.55,455.73 2535.88,962.98 3001.4,488.461 2046.55,455.73"
         style="fill:#e7e8e5;fill-opacity:1;fill-rule:nonzero;stroke:none"
         id="path80" /><path
         d="m 2612.25,1028.44 509.58,504.84 c 0,-22.42 -4.42,-1047.151 -4.42,-1047.151 l -505.16,542.311"
         style="fill:#e7e8e5;fill-opacity:1;fill-rule:nonzero;stroke:none"
         id="path82" /><path
         d="m 2175.9,1312.05 289.08,-289.07 -570.72,-589.058 -263.79,316.34 545.43,561.788"
         style="fill:#e7e8e5;fill-opacity:1;fill-rule:nonzero;stroke:none"
         id="path84" /><path
         d="m 1394.82,709.219 c 27.27,2.73 726.39,657.381 726.39,657.381 l -726.39,752.69 V 709.219"
         style="fill:#e7e8e5;fill-opacity:1;fill-rule:nonzero;stroke:none"
         id="path86" /><path
         d="m 1384.69,560.039 168.33,149.18 233.06,-275.297 h -401.39 v 105.308 20.809"
         style="fill:#e7e8e5;fill-opacity:1;fill-rule:nonzero;stroke:none"
         id="path88" /><path
         d="m 1602.52,3411.11 c -0.98,-1.05 -23.34,18.41 -49.93,43.44 l -0.02,0.02 c -0.01,7.58 0.01,2.11 0.01,3.81 l 0.04,0.04 0.08,0.07 0.16,0.15 0.3,0.29 0.63,0.58 1.23,1.16 2.46,2.29 c 1.62,1.51 3.23,3 4.81,4.48 3.13,2.86 6.17,5.65 9.16,8.38 5.47,4.88 10.7,9.54 15.7,13.99 9.04,7.86 14.88,12.46 15.37,11.93 0.5,-0.53 -4.45,-6.07 -12.85,-14.61 -4.76,-4.71 -9.73,-9.64 -14.94,-14.8 -2.92,-2.81 -5.89,-5.67 -8.94,-8.62 -1.57,-1.48 -3.16,-2.99 -4.76,-4.52 l -2.44,-2.31 -1.24,-1.16 -0.62,-0.58 -0.31,-0.3 -0.16,-0.14 -0.07,-0.07 -0.04,-0.04 c 0,1.68 -0.03,-3.8 -0.01,3.77 l 0.02,-0.02 c 26.59,-25.04 47.35,-46.18 46.36,-47.23"
         style="fill:#17282f;fill-opacity:1;fill-rule:nonzero;stroke:none"
         id="path90" /><path
         d="m 2984.74,3487.39 c 0,-5.99 -4.85,-10.84 -10.84,-10.84 -5.99,0 -10.85,4.85 -10.85,10.84 0,5.99 4.86,10.85 10.85,10.85 5.99,0 10.84,-4.86 10.84,-10.85"
         style="fill:#17282f;fill-opacity:1;fill-rule:nonzero;stroke:none"
         id="path92" /><path
         d="m 2981.57,3457.75 c 4.23,-4.23 4.23,-11.1 0,-15.34 -4.24,-4.23 -11.11,-4.23 -15.34,0 -4.24,4.24 -4.24,11.11 0,15.34 4.23,4.24 11.1,4.24 15.34,0"
         style="fill:#17282f;fill-opacity:1;fill-rule:nonzero;stroke:none"
         id="path94" /><path
         d="m 2984.74,3412.77 c 0,-5.99 -4.85,-10.85 -10.84,-10.85 -5.99,0 -10.85,4.86 -10.85,10.85 0,5.99 4.86,10.85 10.85,10.85 5.99,0 10.84,-4.86 10.84,-10.85"
         style="fill:#17282f;fill-opacity:1;fill-rule:nonzero;stroke:none"
         id="path96" /><path
         d="M 2516.06,3404.13 H 2048.3 v 38.97 h 467.76 v -38.97"
         style="fill:#17282f;fill-opacity:1;fill-rule:nonzero;stroke:none"
         id="path98" /><path
         d="m 2281.85,2584.42 c -131.23,-76.3 -264.23,64.74 -192.3,203.93 9.57,18.52 24.22,34.06 41.68,44.21 131.24,76.32 264.25,-64.74 192.3,-203.93 -9.57,-18.52 -24.22,-34.06 -41.68,-44.21 z m 183.41,158.59 c 0,182.23 -191.48,297.68 -386.69,206.33 -44.09,-20.63 -80.57,-55.55 -102.72,-98.46 -49.11,-95.14 -27.43,-203.78 17.11,-293.99 l 151.93,-385.05 c 21.9,-55.5 100.56,-55.17 121.99,0.51 l 148.96,387.06 c 51.58,117.89 49.42,183.6 49.42,183.6"
         style="fill:#f03d5f;fill-opacity:1;fill-rule:nonzero;stroke:none"
         id="path100" /><path
         d="m 894.723,538.18 h 5548.17 v 814.07 H 894.723 Z"
         style="fill:#f03d5f;fill-opacity:1;fill-rule:nonzero;stroke:none"
         id="path102" /><path
         d="M 6368.25,538.18 H 5112.43 c -4.84,196.91 45.13,662.39 625.6,663.22 0.5,0.01 1.05,0.01 1.54,0.01 575.13,0 631.35,-462.449 628.68,-663.23 m -4104.64,0 h -268.33 -187.96 -109.51 -313.12 -365.67 c 8.18,197.781 84.74,643.51 607.24,660.15 9.55,0.3 18.98,0.45 28.25,0.45 515.81,0 597.59,-464.05 609.1,-660.6"
         style="fill:#7e1c2c;fill-opacity:1;fill-rule:nonzero;stroke:none"
         id="path104" /><path
         d="M 1105.31,551.32 C 1101.05,255.891 1337.09,12.9297 1632.52,8.67188 1927.95,4.41016 2170.91,240.449 2175.17,535.879 c 4.26,295.441 -231.78,538.391 -527.22,542.641 -295.43,4.27 -538.38,-231.77 -542.64,-527.2"
         style="fill:#17282f;fill-opacity:1;fill-rule:nonzero;stroke:none"
         id="path106" /><path
         d="m 1105.4,552.691 -0.09,-1.371 C 1101.05,255.891 1337.09,12.9297 1632.52,8.67188 1927.95,4.41016 2170.91,240.449 2175.17,535.879 l -0.05,1.383 -1069.72,15.429"
         style="fill:#17282f;fill-opacity:1;fill-rule:nonzero;stroke:none"
         id="path108" /><path
         d="m 1264.68,549.012 c -2.99,-207.41 162.72,-377.981 370.14,-380.973 207.42,-2.988 377.99,162.723 380.98,370.141 2.99,207.41 -162.73,377.992 -370.15,380.98 -207.41,2.992 -377.97,-162.73 -380.97,-370.148"
         style="fill:#fafaf9;fill-opacity:1;fill-rule:nonzero;stroke:none"
         id="path110" /><path
         d="M 1645.65,919.16 C 1438.24,922.152 1267.68,756.43 1264.68,549.012 L 2015.8,538.18 c 2.99,207.41 -162.73,377.992 -370.15,380.98"
         style="fill:#dadbd8;fill-opacity:1;fill-rule:nonzero;stroke:none"
         id="path112" /><path
         d="m 1411.47,546.898 c -1.82,-126.347 99.13,-230.25 225.46,-232.066 126.35,-1.82 230.26,99.117 232.08,225.469 1.83,126.347 -99.13,230.25 -225.47,232.07 -126.35,1.828 -230.25,-99.121 -232.07,-225.473"
         style="fill:#17282f;fill-opacity:1;fill-rule:nonzero;stroke:none"
         id="path114" /><path
         d="M 5196.31,551.32 C 5192.06,255.891 5428.1,12.9297 5723.53,8.67188 6018.97,4.41016 6261.92,240.461 6266.18,535.879 c 4.26,295.441 -231.78,538.391 -527.22,542.641 -295.43,4.27 -538.38,-231.77 -542.65,-527.2"
         style="fill:#17282f;fill-opacity:1;fill-rule:nonzero;stroke:none"
         id="path116" /><path
         d="m 5196.41,552.691 -0.1,-1.371 C 5192.06,255.891 5428.1,12.9297 5723.53,8.67188 6018.97,4.41016 6261.92,240.461 6266.18,535.879 l -0.05,1.383 -1069.72,15.429"
         style="fill:#17282f;fill-opacity:1;fill-rule:nonzero;stroke:none"
         id="path118" /><path
         d="m 5355.7,549.012 c -3,-207.41 162.71,-377.981 370.13,-380.973 207.42,-2.988 377.98,162.723 380.98,370.141 2.99,207.41 -162.72,377.992 -370.14,380.98 -207.43,2.992 -377.98,-162.73 -380.97,-370.148"
         style="fill:#fafaf9;fill-opacity:1;fill-rule:nonzero;stroke:none"
         id="path120" /><path
         d="M 5736.67,919.16 C 5529.24,922.152 5358.69,756.43 5355.7,549.012 l 751.11,-10.832 c 2.99,207.41 -162.72,377.992 -370.14,380.98"
         style="fill:#dadbd8;fill-opacity:1;fill-rule:nonzero;stroke:none"
         id="path122" /><path
         d="m 5502.48,546.898 c -1.82,-126.347 99.13,-230.25 225.46,-232.066 126.35,-1.82 230.26,99.117 232.08,225.469 1.83,126.347 -99.13,230.25 -225.47,232.07 -126.34,1.828 -230.25,-99.121 -232.07,-225.473"
         style="fill:#17282f;fill-opacity:1;fill-rule:nonzero;stroke:none"
         id="path124" /><path
         d="m 2341.53,1810.25 c 0,0 -787.8,-58.09 -1079.8,-123.59 -205.79,-46.15 -602.609,-125.8 -597.824,-375.46 l 31.473,-178.95 c 0,0 -147.231,-67.23 -147.231,-238.77 0,-171.55 -35.941,-437.671 307.629,-448.308 56.625,-1.742 164.173,0 164.173,0 0,0 -65.958,731.738 606.31,753.158 683.88,21.79 638.46,-746.459 638.46,-746.459 h 2854.25 c 0,0 -117.15,748.469 619.06,749.529 736.21,1.06 624.2,-754.42 624.2,-754.42 0,0 270.82,-23.441 396.83,204.18 126.01,227.621 93.21,389.63 93.21,389.63 l -4.17,143.86 c -1.42,48.98 -40.56,88.48 -89.52,90.37 0,0 49.19,362.26 -26.28,424.96 -75.47,62.71 -489.23,440.93 -489.23,440.93 l 19.71,12.38 c 33.02,20.73 27.29,70.47 -9.58,83.15 -157.07,54.02 -467.66,160.89 -540.69,186.44 -10.99,3.85 -22.31,6.23 -33.92,7.13 -43.56,3.34 -166.94,11.16 -393.43,13.57 -275.91,2.95 -1371.34,0 -1371.34,0 0,0 -376.98,-31 -587,-123.45 -220.81,-97.19 -985.29,-509.88 -985.29,-509.88"
         style="fill:#f03d5f;fill-opacity:1;fill-rule:nonzero;stroke:none"
         id="path126" /><path
         d="m 718.473,672.82 c -12.379,0 -24.883,3.039 -35.715,8.93 -26.117,14.191 -42.957,41.832 -49.988,70.711 -7.032,28.891 -5.352,59.148 -1.973,88.68 2.461,21.519 6.75,44.769 22.926,59.148 13.804,12.281 36.461,16.563 58.476,16.563 12.719,0 25.223,-1.43 35.676,-3.563 9.48,-0.559 15.273,-4.527 22.848,-13.687 4.672,-5.661 8.476,-14.813 9.828,-22.012 7.101,-37.93 4.004,-70.621 4.699,-109.199 0.488,-27.172 -1.641,-56.961 -20.207,-76.801 -11.891,-12.711 -29.102,-18.77 -46.57,-18.77"
         style="fill:#9c2438;fill-opacity:1;fill-rule:nonzero;stroke:none"
         id="path128" /><path
         d="m 695.383,1132.25 c 83.633,-0.18 164.746,4.59 248.195,10.16 9.024,0.61 18.805,1.55 25.442,7.71 7.972,7.39 8.617,19.57 8.71,30.45 0.395,44.82 -1.832,95.76 -35.832,124.97 -20.769,17.85 -49.277,23.39 -76.543,25.95 -67.128,6.32 -137.503,1.11 -201.449,-20.29 l 31.477,-178.95"
         style="fill:#fafaf9;fill-opacity:1;fill-rule:nonzero;stroke:none"
         id="path130" /><path
         d="m 2431.95,474.77 c 0,0 -0.3,2.421 -0.65,7.14 -0.32,4.899 -0.78,11.879 -1.38,20.988 -1.01,18.622 -2.5,45.782 -4.41,80.711 -1.96,35.039 -4.28,77.922 -9.31,127.493 -5.16,49.488 -12.77,105.918 -29.49,166.308 -16.77,60.262 -42.5,124.51 -80.53,187.55 -38.23,62.59 -88.43,125.17 -155.63,173.58 -134.98,95.99 -317.25,150.26 -507.94,152.59 -191.17,2.28 -372.79,-58.12 -504.35,-158.8 -66.42,-49.31 -121.38,-106.9 -163.744,-167.07 C 931.852,1005.25 900.66,943.551 878.672,884.969 856.445,826.352 844.805,770.5 838.203,721.281 c -7.176,-49.312 -6.117,-92.402 -4.91,-127.351 2.734,-34.918 5.816,-62.02 9.805,-80.051 1.625,-8.969 2.871,-15.848 3.742,-20.68 0.816,-4.668 1.105,-7.09 1.105,-7.09 0,0 -0.636,2.352 -1.621,6.981 -0.996,4.801 -2.414,11.66 -4.258,20.59 -4.328,18.011 -7.746,45.121 -10.796,80.121 -1.524,35.051 -2.879,78.301 4.043,127.847 6.351,49.454 17.796,105.614 39.906,164.602 21.871,58.941 53.027,121.06 95.781,181.51 42.44,60.61 97.63,118.68 164.4,168.42 132.2,101.51 315.03,162.47 507.25,160.16 191.74,-2.38 374.79,-56.97 510.72,-153.91 67.79,-49.01 118.21,-112.18 156.5,-175.24 38.11,-63.52 63.77,-128.19 80.39,-188.799 16.57,-60.762 23.94,-117.379 28.84,-167 4.76,-49.68 6.79,-92.61 8.44,-127.68 1.48,-34.949 2.64,-62.129 3.43,-80.762 0.37,-9.109 0.66,-16.109 0.86,-21.008 0.17,-4.73 0.12,-7.171 0.12,-7.171"
         style="fill:#ffffff;fill-opacity:1;fill-rule:nonzero;stroke:none"
         id="path132" /><path
         d="m 2462.26,462.34 c 0,0 -0.18,2.012 -0.34,5.992 -0.15,4.066 -0.36,9.969 -0.64,17.727 -0.49,15.75 -1.21,38.933 -2.15,69.121 -1.72,60.652 -4.25,149.39 -7.46,262.218 -3.1,112.942 -6.85,249.982 -11.15,407.032 -1.06,39.28 -2.15,79.8 -3.28,121.52 -1.38,20.81 0.8,42.1 2.74,63.53 1.51,10.66 3.04,21.39 4.57,32.19 2.19,10.68 4.4,21.43 6.61,32.26 10.09,43 24.77,86.14 44.5,128.1 19.82,41.9 43.3,83.34 73.27,121.71 l 0.2,0.25 0.33,0.22 c 152.66,96.16 318.67,200.75 494.3,311.38 43.92,27.66 88.43,55.69 133.48,84.06 44.22,29.98 91.98,55.61 141.3,78.88 49.38,23.21 100.72,43.54 153.43,61.28 26.26,9.21 53.17,16.76 80.06,24.77 27.19,6.85 54.31,14.6 82.06,20.15 106.43,23.63 213.56,35.35 318.57,40.22 105.05,4.91 208.15,4.62 308.41,-1.02 l 2.94,-0.17 -0.66,-2.9 c -47.31,-211.64 -91.93,-411.21 -132.83,-594.14 l -0.08,-0.36 -0.22,-0.36 c -24.92,-40.98 -44.76,-84.12 -59.57,-127.62 -14.21,-43.62 -23.36,-88.43 -20.17,-132.07 3.39,-43.91 4.6,-86.87 5.73,-128.52 0.82,-41.69 1.61,-82.19 2.38,-121.43 2.3,-156.99 2.89,-293.938 3.33,-406.758 0.12,-112.762 0.21,-201.442 0.27,-262.032 -0.11,-30.191 -0.18,-53.351 -0.24,-69.082 -0.08,-7.758 -0.13,-13.656 -0.17,-17.718 -0.06,-3.969 -0.18,-6 -0.18,-6 0,0 -0.12,2.031 -0.18,6 -0.05,4.062 -0.11,9.96 -0.19,17.718 -0.1,15.731 -0.25,38.891 -0.43,69.082 -0.37,60.578 -0.88,149.262 -1.54,262.012 -0.83,112.816 -1.77,249.758 -4.39,406.718 -0.85,39.23 -1.71,79.71 -2.61,121.38 -1.2,41.67 -2.47,84.47 -5.93,128.32 -3.31,44.45 5.92,89.75 20.19,133.75 14.9,43.92 34.71,87.19 59.88,128.69 l -0.3,-0.74 c 40.74,182.96 85.19,382.58 132.33,594.26 l 2.3,-3.07 c -99.94,5.58 -203,5.83 -307.81,0.9 -104.83,-4.89 -211.63,-16.59 -317.71,-40.14 -27.66,-5.54 -54.68,-13.26 -81.79,-20.09 -26.8,-7.97 -53.62,-15.5 -79.79,-24.67 -52.53,-17.67 -103.69,-37.93 -152.9,-61.03 -49.15,-23.17 -96.67,-48.66 -140.64,-78.45 -45.08,-28.36 -89.61,-56.37 -133.55,-84.01 -175.75,-110.51 -341.9,-214.97 -494.66,-311.03 l 0.53,0.47 c -29.56,-37.75 -53.1,-79.09 -72.8,-120.66 -19.66,-41.67 -34.31,-84.5 -44.4,-127.2 -22.49,-85.7 -11.15,-170.25 -10.96,-248.55 3.88,-157.04 7.28,-294.059 10.08,-406.989 2.67,-112.839 4.77,-201.582 6.2,-262.222 0.64,-30.207 1.13,-53.387 1.46,-69.149 0.13,-7.75 0.22,-13.66 0.29,-17.73 0.04,-3.981 -0.02,-6 -0.02,-6"
         style="fill:#17282f;fill-opacity:1;fill-rule:nonzero;stroke:none"
         id="path134" /><path
         d="m 4277.69,2327.04 c 0,0 1.58,0.19 4.68,0.31 3.29,0.12 7.84,0.26 13.75,0.46 12.31,0.3 30.14,0.73 53.08,1.29 46.42,0.91 113.48,2.24 196.9,3.88 167.35,2.86 400.35,6.83 663.85,11.32 l 1.25,0.03 0.79,-0.98 c 29.8,-36.49 61.15,-74.87 93.01,-113.88 94.22,-115.53 183.98,-225.57 265.63,-325.69 10.2,-12.51 20.26,-24.87 30.2,-37.07 9.83,-12.43 18.17,-25.93 24.84,-39.86 13.1,-28.01 19.75,-58 19.86,-87.02 0.3,-29.04 -5.73,-56.96 -16.09,-81.79 -10.53,-24.5 -20.63,-48 -30.27,-70.45 -38.69,-89.52 -70.02,-162.02 -91.77,-212.36 -10.88,-24.87 -19.35,-44.25 -25.2,-57.62 -2.87,-6.42 -5.09,-11.39 -6.67,-14.93 -1.53,-3.36 -2.44,-5.02 -2.44,-5.02 0,0 0.58,1.8 1.95,5.22 1.47,3.59 3.53,8.63 6.2,15.14 5.63,13.45 13.8,32.98 24.29,58.01 21.39,50.48 52.21,123.22 90.26,213.01 17.23,45.21 47.5,92.77 45.43,150.75 -0.2,28.41 -6.8,57.74 -19.68,85.1 -6.6,13.64 -14.69,26.69 -24.4,38.91 -9.96,12.18 -20.06,24.52 -30.28,37.01 -81.74,100.02 -171.58,209.97 -265.91,325.38 -31.84,39.02 -63.17,77.41 -92.96,113.9 l 2.04,-0.95 c -263.51,-3.8 -496.52,-7.17 -663.87,-9.59 -83.44,-0.99 -150.5,-1.77 -196.93,-2.32 -22.94,-0.17 -40.78,-0.3 -53.09,-0.39 -5.92,0.01 -10.47,0.02 -13.76,0.02 -3.11,0.04 -4.69,0.18 -4.69,0.18"
         style="fill:#17282f;fill-opacity:1;fill-rule:nonzero;stroke:none"
         id="path136" /><path
         d="m 3942.57,1444.29 c -0.01,0.28 2.81,0.24 7.96,1.17 5.12,0.88 12.75,2.94 21.03,8.37 8.16,5.36 16.97,14.55 21.38,27.83 2.29,6.63 3.05,13.95 2.73,22.01 -0.18,7.84 -2.17,16.09 -6.2,23.78 -7.97,15.26 -25.44,28.07 -46.06,28.06 -21.13,-0.07 -43.69,-0.13 -67.4,-0.2 -47.55,-0.07 -99.73,-0.13 -154.52,-0.2 -13.1,0 -25.86,-5.09 -35.21,-13.72 -9.41,-8.57 -15.4,-20.47 -16.71,-32.73 -1.26,-12.57 0.4,-24.89 6.39,-35.3 5.76,-10.43 15.16,-18.3 25.58,-22.73 10.54,-4.68 21.89,-4.01 33.26,-4.06 11.24,-0.04 22.17,-0.09 32.73,-0.13 21.09,-0.11 40.76,-0.22 58.76,-0.32 35.53,-0.34 64.47,-0.62 85.09,-0.82 9.66,-0.2 17.36,-0.37 23.13,-0.49 5.29,-0.17 8.06,-0.35 8.06,-0.52 0,-0.19 -2.77,-0.36 -8.06,-0.53 -5.77,-0.13 -13.47,-0.28 -23.13,-0.49 -20.62,-0.2 -49.56,-0.48 -85.09,-0.83 -18,-0.1 -37.67,-0.2 -58.76,-0.31 -10.56,-0.05 -21.49,-0.09 -32.73,-0.14 -5.69,0.07 -11.18,-0.23 -17.28,0.15 -6,0.43 -12.08,1.67 -17.81,4.05 -11.41,4.77 -21.72,13.33 -28.07,24.72 -6.63,11.25 -8.48,25.22 -7.15,38.31 1.41,13.46 7.97,26.57 18.3,35.99 10.25,9.5 24.31,15.11 38.7,15.1 54.79,-0.08 106.97,-0.14 154.52,-0.2 23.74,-0.1 46.31,-0.2 67.47,-0.29 22.31,-0.19 40.96,-14.23 49.25,-30.66 4.22,-8.28 6.19,-17.12 6.25,-25.44 0.21,-8.1 -0.73,-16.17 -3.29,-23.01 -4.93,-13.91 -14.41,-23.29 -23.04,-28.59 -8.76,-5.36 -16.7,-7.13 -21.97,-7.71 -5.3,-0.59 -8.11,-0.12 -8.11,-0.12"
         style="fill:#17282f;fill-opacity:1;fill-rule:nonzero;stroke:none"
         id="path138" /><path
         d="m 5421.88,1444.29 c -0.01,0.28 2.79,0.24 7.95,1.17 5.13,0.88 12.75,2.94 21.02,8.37 8.17,5.36 16.99,14.55 21.39,27.83 2.3,6.63 3.06,13.95 2.74,22.01 -0.19,7.84 -2.17,16.09 -6.21,23.78 -7.96,15.26 -25.44,28.07 -46.05,28.06 -21.14,-0.07 -43.69,-0.13 -67.4,-0.2 -47.55,-0.07 -99.74,-0.13 -154.52,-0.2 -13.1,0 -25.86,-5.09 -35.22,-13.72 -9.41,-8.57 -15.39,-20.47 -16.72,-32.73 -1.25,-12.57 0.41,-24.89 6.4,-35.3 5.77,-10.43 15.16,-18.3 25.58,-22.73 10.53,-4.68 21.89,-4.01 33.26,-4.06 11.25,-0.04 22.16,-0.09 32.74,-0.13 21.08,-0.11 40.74,-0.22 58.76,-0.32 35.53,-0.34 64.45,-0.62 85.08,-0.82 9.66,-0.2 17.36,-0.37 23.13,-0.49 5.29,-0.17 8.07,-0.35 8.07,-0.52 0,-0.19 -2.78,-0.36 -8.07,-0.53 -5.77,-0.13 -13.47,-0.28 -23.13,-0.49 -20.63,-0.2 -49.55,-0.48 -85.08,-0.83 -18.02,-0.1 -37.68,-0.2 -58.76,-0.31 -10.58,-0.05 -21.49,-0.09 -32.74,-0.14 -5.7,0.07 -11.18,-0.23 -17.28,0.15 -5.99,0.43 -12.07,1.67 -17.8,4.05 -11.42,4.77 -21.72,13.33 -28.09,24.72 -6.62,11.25 -8.47,25.22 -7.14,38.31 1.42,13.46 7.96,26.57 18.29,35.99 10.26,9.5 24.33,15.11 38.72,15.1 54.78,-0.08 106.97,-0.14 154.52,-0.2 23.74,-0.1 46.31,-0.2 67.47,-0.29 22.3,-0.19 40.96,-14.23 49.25,-30.66 4.21,-8.28 6.19,-17.12 6.25,-25.44 0.21,-8.1 -0.74,-16.17 -3.29,-23.01 -4.94,-13.91 -14.41,-23.29 -23.04,-28.59 -8.77,-5.36 -16.7,-7.13 -21.97,-7.71 -5.31,-0.59 -8.11,-0.12 -8.11,-0.12"
         style="fill:#17282f;fill-opacity:1;fill-rule:nonzero;stroke:none"
         id="path140" /><path
         d="m 6719.15,1685.68 h -296.01 c -40.57,0 -77.79,-22.48 -96.68,-58.39 -15.49,-29.46 -16.71,-64.38 -3.29,-94.85 l 116.08,-263.67 296.39,2.91 c 0,0 63.03,334.23 -16.49,414"
         style="fill:#fafaf9;fill-opacity:1;fill-rule:nonzero;stroke:none"
         id="path142" /><path
         d="m 2608.18,1722.98 1527.33,28.14 994.02,18.23 327.78,189.24 c 26.54,15.33 33.62,50.46 15.09,74.87 l -204.06,268.1 c -21.27,27.96 -54.29,44.49 -89.43,44.77 l -1111.77,9.04 c 0,0 -418.66,24.33 -748.47,-160.36 -347.16,-194.39 -710.49,-472.03 -710.49,-472.03"
         style="fill:#17282f;fill-opacity:1;fill-rule:nonzero;stroke:none"
         id="path144" /><path
         d="m 3308.16,2327.68 c 0,0 76.56,-34.92 26.73,-67.27 -49.82,-32.34 -823.62,-520.19 -823.62,-520.19 l -177.88,80.51 c 315.09,175.55 633.35,346.04 974.77,506.95"
         style="fill:#33535f;fill-opacity:1;fill-rule:nonzero;stroke:none"
         id="path146" /><path
         d="m 2536.27,1728.04 c 0,0 -1.59,-0.5 -4.76,-1.22 -3.39,-0.74 -8.07,-1.75 -14.09,-3.07 -12.64,-2.61 -30.89,-6.39 -54.28,-11.23 -47.2,-9.39 -115.6,-22.58 -200.43,-37.15 -169.62,-29.19 -405.2,-63.22 -666.93,-85.85 -65.45,-5.69 -129.42,-10.36 -191.21,-14.42 -61.79,-4.06 -121.38,-7.82 -178,-13 -113.23,-9.86 -214.68,-26.36 -297.074,-50.88 -82.641,-23.72 -145.769,-54.13 -187.301,-78.13 -21.281,-11.23 -36.437,-22.2 -47.215,-28.84 -5.199,-3.3 -9.242,-5.87 -12.167,-7.73 -2.758,-1.72 -4.247,-2.49 -4.247,-2.49 0,0 1.282,1.07 3.946,2.93 2.855,1.96 6.804,4.67 11.883,8.16 10.601,6.93 25.609,18.2 46.793,29.72 41.316,24.6 104.457,55.66 187.269,79.92 82.563,25.05 184.293,41.98 297.673,52.12 56.69,5.33 116.33,9.18 178.1,13.3 61.77,4.14 125.69,8.84 191.09,14.53 261.56,22.61 497.07,56.04 666.77,84.29 84.88,14.1 153.35,26.73 200.67,35.51 23.47,4.42 41.77,7.88 54.46,10.27 6.06,1.1 10.77,1.95 14.18,2.56 3.2,0.55 4.87,0.7 4.87,0.7"
         style="fill:#17282f;fill-opacity:1;fill-rule:nonzero;stroke:none"
         id="path148" /><path
         d="m 6837.42,1044.1 c 0,-1.43 -101.8,-2.61 -227.35,-2.61 -125.59,0 -227.37,1.18 -227.37,2.61 0,1.44 101.78,2.61 227.37,2.61 125.55,0 227.35,-1.17 227.35,-2.61"
         style="fill:#17282f;fill-opacity:1;fill-rule:nonzero;stroke:none"
         id="path150" /><path
         d="m 4975.13,784.32 c 0,-1.449 -574.63,-2.609 -1283.31,-2.609 -708.92,0 -1283.44,1.16 -1283.44,2.609 0,1.43 574.52,2.59 1283.44,2.59 708.68,0 1283.31,-1.16 1283.31,-2.59"
         style="fill:#17282f;fill-opacity:1;fill-rule:nonzero;stroke:none"
         id="path152" /><path
         d="m 951.699,1035.5 c 0,-1.44 -81.254,-2.6 -181.461,-2.6 -100.238,0 -181.472,1.16 -181.472,2.6 0,1.43 81.234,2.6 181.472,2.6 100.207,0 181.461,-1.17 181.461,-2.6"
         style="fill:#17282f;fill-opacity:1;fill-rule:nonzero;stroke:none"
         id="path154" /><path
         d="m 6234.93,2151.38 c 0,0 -68.19,-76.36 -41.39,-132.39 26.81,-56.03 303.85,-252.15 303.85,-252.15 l 201.1,-37.73 -463.56,422.27"
         style="fill:#33535f;fill-opacity:1;fill-rule:nonzero;stroke:none"
         id="path156" /><path
         d="m 4322.93,2288.01 -45.24,-488.33 809.2,23.06 326.15,189.58 -211.15,275.69 h -878.96"
         style="fill:#33535f;fill-opacity:1;fill-rule:nonzero;stroke:none"
         id="path158" /><path
         d="m 2799.82,1774.68 c 0,0 488.16,352.56 680.78,422.64 185.89,67.64 282.8,84.58 457.41,89.55 166.91,4.75 268.6,0.15 268.6,0.15 L 4077.6,1790.54 2799.82,1774.68"
         style="fill:#33535f;fill-opacity:1;fill-rule:nonzero;stroke:none"
         id="path160" /><path
         d="m 2728.38,1773.06 v 0 c 0,30.91 16.69,59.43 43.65,74.58 l 112.14,62.99 c 31.97,17.97 68.03,27.4 104.71,27.4 22.81,0 45.27,-3.65 66.57,-10.63 47.93,-15.71 79.84,-61.22 81.76,-111.63 2.66,-70.03 -53.39,-128.26 -123.47,-128.26 h -199.81 c -47.25,0 -85.55,38.3 -85.55,85.55"
         style="fill:#f03d5f;fill-opacity:1;fill-rule:nonzero;stroke:none"
         id="path162" /><path
         d="m 2728.38,1773.06 c 0.28,0.01 0.33,-3.79 1.29,-10.84 0.93,-7.04 3.47,-17.42 9.85,-29.29 6.56,-11.66 17.57,-24.72 34.38,-33.85 8.41,-4.42 18.18,-7.74 28.85,-9.08 10.59,-1.26 22.33,-0.55 34.48,-0.66 48.81,0.17 106.76,0.36 171.06,0.57 15.98,-0.1 32.12,1.88 47.62,7.79 15.46,5.77 30.03,14.91 42.29,26.9 12.24,11.98 22.32,26.75 28.55,43.34 6.31,16.56 8.79,34.75 7.46,52.89 -2.75,36.37 -22.23,70.04 -50.46,89.53 -13.98,10.05 -30.11,15.71 -46.35,19.53 -16.21,3.85 -32.52,5.7 -48.44,5.74 -31.87,0.05 -61.99,-7.09 -87.77,-18.8 -12.91,-5.76 -24.7,-13.06 -36.4,-19.39 -11.61,-6.45 -22.75,-12.65 -33.4,-18.57 -21.25,-11.77 -40.51,-22.44 -57.49,-31.85 -16.87,-9.08 -27.89,-22.17 -34.34,-33.88 -6.51,-11.81 -8.88,-22.25 -9.95,-29.25 -1.03,-7.05 -0.93,-10.84 -1.23,-10.83 0,0 -0.51,3.78 0.19,10.96 0.75,7.13 2.82,17.83 9.2,30.09 6.32,12.12 17.46,25.85 34.71,35.45 16.86,9.6 35.99,20.5 57.1,32.52 10.6,6.01 21.69,12.31 33.24,18.87 11.62,6.39 23.36,13.8 36.58,19.8 26.23,12.14 56.97,19.6 89.56,19.68 16.28,0.02 32.98,-1.8 49.58,-5.7 16.49,-3.81 33.51,-9.71 48.13,-20.18 29.54,-20.33 49.87,-55.41 52.73,-93.3 1.4,-18.9 -1.22,-37.89 -7.81,-55.16 -6.53,-17.3 -17.04,-32.68 -29.82,-45.14 -12.8,-12.47 -28.01,-21.96 -44.12,-27.9 -16.08,-6.12 -33.19,-8.12 -49.36,-7.94 -64.3,0.21 -122.25,0.4 -171.06,0.55 -12.18,0.24 -23.72,-0.39 -34.92,1.05 -11.08,1.53 -21.16,5.11 -29.8,9.81 -17.26,9.69 -28.33,23.36 -34.78,35.44 -6.25,12.32 -8.49,22.96 -9.1,30.13 -0.64,7.18 -0.25,10.97 -0.25,10.97"
         style="fill:#17282f;fill-opacity:1;fill-rule:nonzero;stroke:none"
         id="path164" /><path
         d="m 6489.57,470.219 c 0,0 0.01,2.363 0.28,6.941 0.32,4.738 0.78,11.5 1.37,20.301 0.54,8.93 1.61,19.949 2.19,33.008 0.45,13.09 0.97,28.16 1.55,45.113 0.16,16.969 -0.09,35.848 -0.29,56.488 -1.33,20.61 -1.43,43.09 -4.23,67.051 -4.31,47.949 -12.32,102.508 -28.93,160.859 -8.64,29.02 -18.36,59.329 -31.86,89.532 -12.78,30.5 -29.06,60.938 -48.27,90.868 -38.08,60.21 -92.01,115.63 -156.33,163.17 -64.51,47.44 -140.83,85.47 -224.25,110.56 -83.42,25.58 -174.17,34.86 -266.57,35.51 -92.48,0.23 -182.94,-12.34 -266.04,-38.7 -41.55,-13.12 -81.2,-29.64 -118.42,-48.88 -37.15,-19.36 -71.18,-42.61 -102.78,-67.17 -62.95,-49.58 -116,-105.18 -158.38,-162.42 -20.86,-28.83 -37.81,-58.841 -52.64,-88.399 -13.96,-29.969 -26.65,-59.141 -36.4,-87.86 -40.48,-114.582 -53.19,-213.101 -57.71,-280.601 -1.61,-33.899 -1.43,-60.281 -0.58,-78.129 0.51,-8.801 0.89,-15.563 1.18,-20.301 0.22,-4.578 0.21,-6.941 0.21,-6.941 0,0 -0.34,2.332 -0.75,6.89 -0.39,4.743 -0.96,11.5 -1.69,20.301 -1.18,17.86 -1.69,44.289 -0.4,78.289 3.92,67.711 16.08,166.563 56.27,281.711 9.68,28.879 22.31,58.219 36.26,88.399 14.81,29.773 31.79,60.041 52.77,89.201 42.49,57.68 95.66,113.66 158.9,163.63 31.75,24.77 65.97,48.21 103.44,67.8 37.47,19.44 77.36,36.1 119.18,49.34 83.64,26.61 174.65,39.28 267.58,39.04 92.76,-0.63 184.01,-10.01 268.03,-35.83 83.97,-25.32 160.74,-63.7 225.63,-111.56 32.46,-23.89 62.03,-49.99 88.43,-77.57 26.44,-27.54 49.66,-56.75 68.69,-87.14 19.27,-30.21 35.57,-60.9 48.33,-91.618 13.48,-30.43 23.14,-60.93 31.71,-90.133 16.46,-58.688 24.24,-113.477 28.29,-161.598 2.67,-24.039 2.63,-46.582 3.81,-67.23 0.05,-20.7 0.15,-39.61 -0.16,-56.602 -0.76,-16.969 -1.44,-32.051 -2.02,-45.16 -0.76,-13.07 -2,-24.078 -2.71,-33 -0.81,-8.789 -1.43,-15.539 -1.87,-20.27 -0.46,-4.558 -0.82,-6.89 -0.82,-6.89"
         style="fill:#ffffff;fill-opacity:1;fill-rule:nonzero;stroke:none"
         id="path166" /><path
         d="m 4056.25,1722.98 c 0,-0.09 -0.79,-0.18 -2.32,-0.28 -1.84,-0.07 -4.06,-0.16 -6.79,-0.28 -6.4,-0.14 -15.1,-0.33 -26.08,-0.58 -23.13,-0.41 -55.77,-0.99 -95.91,-1.71 -80.98,-1.53 -192.85,-4.51 -316.4,-7.87 -123.61,-3.35 -235.52,-5.75 -316.55,-6.32 -40.51,-0.33 -73.3,-0.35 -95.95,-0.07 -10.98,0.16 -19.68,0.3 -26.09,0.4 -2.72,0.1 -4.95,0.16 -6.79,0.23 -1.52,0.08 -2.31,0.17 -2.31,0.26 0,0.09 0.79,0.18 2.31,0.28 1.84,0.07 4.07,0.17 6.79,0.27 6.41,0.15 15.1,0.35 26.08,0.58 23.12,0.42 55.77,1.01 95.91,1.73 80.98,1.51 192.85,4.49 316.46,7.85 123.55,3.37 235.46,5.76 316.48,6.34 40.52,0.31 73.3,0.34 95.97,0.07 10.98,-0.17 19.68,-0.31 26.08,-0.4 2.73,-0.1 4.95,-0.18 6.79,-0.24 1.53,-0.09 2.32,-0.17 2.32,-0.26"
         style="fill:#ffffff;fill-opacity:1;fill-rule:nonzero;stroke:none"
         id="path168" /><path
         d="m 3923.65,1572.61 c 0,-1.45 -39.23,-2.61 -87.61,-2.61 -48.39,0 -87.61,1.16 -87.61,2.61 0,1.43 39.22,2.59 87.61,2.59 48.38,0 87.61,-1.16 87.61,-2.59"
         style="fill:#ffffff;fill-opacity:1;fill-rule:nonzero;stroke:none"
         id="path170" /><path
         d="m 3955.8,2107.75 c 0.54,-1.33 -108.22,-46.62 -242.89,-101.12 -134.72,-54.54 -244.33,-97.65 -244.88,-96.31 -0.53,1.33 108.21,46.6 242.92,101.13 134.67,54.51 244.31,97.63 244.85,96.3"
         style="fill:#ffffff;fill-opacity:1;fill-rule:nonzero;stroke:none"
         id="path172" /><path
         d="m 3735.42,2073.6 c 0.57,-1.33 -102.98,-46.95 -231.26,-101.88 -128.33,-54.95 -232.79,-98.42 -233.35,-97.1 -0.57,1.33 102.97,46.93 231.29,101.89 128.29,54.93 232.76,98.41 233.32,97.09"
         style="fill:#ffffff;fill-opacity:1;fill-rule:nonzero;stroke:none"
         id="path174" /><path
         d="m 5133.03,2126.66 c 0.54,-1.33 -108.22,-46.61 -242.9,-101.12 -134.71,-54.53 -244.32,-97.64 -244.86,-96.31 -0.55,1.34 108.19,46.6 242.91,101.13 134.68,54.51 244.32,97.63 244.85,96.3"
         style="fill:#ffffff;fill-opacity:1;fill-rule:nonzero;stroke:none"
         id="path176" /><path
         d="m 4912.65,2092.51 c 0.57,-1.32 -102.99,-46.94 -231.27,-101.88 -128.32,-54.95 -232.78,-98.42 -233.34,-97.1 -0.56,1.32 102.97,46.93 231.29,101.89 128.28,54.94 232.76,98.41 233.32,97.09"
         style="fill:#ffffff;fill-opacity:1;fill-rule:nonzero;stroke:none"
         id="path178" /><path
         d="m 5154.28,1723.06 c 0.01,-1.44 -216.29,-3.89 -483.05,-5.48 -266.86,-1.59 -483.12,-1.72 -483.13,-0.28 -0.01,1.44 216.24,3.89 483.1,5.48 266.76,1.59 483.07,1.71 483.08,0.28"
         style="fill:#ffffff;fill-opacity:1;fill-rule:nonzero;stroke:none"
         id="path180" /><path
         d="m 5393.81,1580.98 c 0.01,-1.45 -60.64,-3.18 -135.47,-3.88 -74.85,-0.69 -135.52,-0.1 -135.53,1.34 -0.01,1.44 60.63,3.17 135.49,3.87 74.82,0.7 135.5,0.1 135.51,-1.33"
         style="fill:#ffffff;fill-opacity:1;fill-rule:nonzero;stroke:none"
         id="path182" /><path
         d="m 1252.32,1654.9 c 0.01,-0.17 -2.01,-0.56 -5.88,-1.13 -4.44,-0.58 -10.05,-1.31 -16.96,-2.22 -7.37,-0.84 -16.37,-1.95 -26.77,-3.67 -10.41,-1.66 -22.31,-3.16 -35.31,-5.79 -26.12,-4.53 -56.95,-11.39 -90.79,-20.39 -33.74,-9.38 -70.45,-21.11 -108.133,-35.74 -37.598,-14.89 -72.504,-31.24 -103.622,-47.32 -30.957,-16.4 -58.222,-32.33 -80.46,-46.77 -11.321,-6.91 -21.067,-13.9 -29.821,-19.75 -8.793,-5.81 -16.156,-11.11 -22.133,-15.51 -5.679,-4.03 -10.293,-7.3 -13.941,-9.89 -3.223,-2.22 -4.969,-3.32 -5.082,-3.18 -0.113,0.14 1.422,1.52 4.437,4.01 3.504,2.79 7.926,6.33 13.375,10.68 5.801,4.65 13.008,10.22 21.665,16.26 8.625,6.1 18.257,13.33 29.488,20.47 22.055,14.88 49.254,31.21 80.23,47.92 31.141,16.39 66.172,32.97 103.957,47.93 37.87,14.71 74.82,26.37 108.8,35.52 34.07,8.8 65.12,15.31 91.41,19.39 13.09,2.4 25.07,3.65 35.54,5.04 10.46,1.45 19.53,2.28 26.95,2.8 6.95,0.52 12.6,0.93 17.07,1.26 3.9,0.23 5.96,0.26 5.98,0.08"
         style="fill:#ffffff;fill-opacity:1;fill-rule:nonzero;stroke:none"
         id="path184" /><path
         d="m 3038.04,1890.83 c -0.39,-0.29 -2.95,3.92 -9.63,9.31 -6.59,5.33 -17.87,11.42 -33.04,13.35 -15.17,2.01 -33.52,-0.58 -53.31,-5.78 -19.85,-4.96 -41.29,-12.02 -62.95,-21.41 -43.48,-18.71 -78.89,-43.61 -102.44,-63.68 -23.76,-19.98 -36.33,-34.7 -37.08,-34.01 -0.26,0.24 2.75,4.01 8.45,10.64 5.82,6.51 14.53,15.72 26.22,26.14 23.13,20.99 58.71,46.73 102.77,65.68 21.95,9.52 43.73,16.55 63.9,21.3 20.03,5 39.15,7.36 54.95,4.76 15.86,-2.49 27.41,-9.43 33.86,-15.45 3.27,-3.02 5.37,-5.77 6.68,-7.69 1.24,-1.97 1.76,-3.06 1.62,-3.16"
         style="fill:#ffffff;fill-opacity:1;fill-rule:nonzero;stroke:none"
         id="path186" /><path
         d="m 6257.58,2154.92 c 0,0 -14.83,-4.46 -42.57,-4.34 -13.8,0.33 -30.73,1.95 -49.92,6.17 -19.2,4.16 -40.59,10.85 -63.64,19.64 -23.09,8.72 -47.73,19.76 -74.32,31.12 -13.39,5.41 -27.24,11 -41.51,16.75 -14.29,5.69 -29.37,10.6 -44.62,16.16 -61.43,21.13 -130.44,40.05 -203.82,55.55 -146.9,30.85 -282.67,43.61 -380.88,47.42 -24.56,1.34 -46.8,1.35 -66.33,1.9 -19.44,0 -36.23,0 -50.12,0 -13.46,-0.3 -24.04,-0.54 -31.67,-0.71 -3.38,-0.02 -6.1,-0.03 -8.25,-0.05 -1.86,0.02 -2.82,0.07 -2.82,0.16 -0.01,0.09 0.94,0.21 2.8,0.37 2.15,0.15 4.85,0.33 8.22,0.57 7.63,0.4 18.21,0.97 31.67,1.68 13.91,0.25 30.72,0.55 50.18,0.89 19.56,-0.27 41.85,-0.03 66.46,-1.13 98.41,-2.87 234.54,-15.08 381.83,-46 73.56,-15.55 142.75,-34.67 204.3,-56.11 15.29,-5.64 30.38,-10.64 44.71,-16.43 14.28,-5.86 28.14,-11.55 41.56,-17.06 26.57,-11.55 51.06,-22.75 73.94,-31.65 22.85,-8.96 43.98,-15.84 62.95,-20.23 18.95,-4.45 35.66,-6.34 49.34,-6.99 13.69,-0.36 24.35,0.32 31.52,1.17 3.35,0.41 6.03,0.73 8.17,0.99 1.85,0.2 2.8,0.25 2.82,0.16"
         style="fill:#17282f;fill-opacity:1;fill-rule:nonzero;stroke:none"
         id="path188" /><path
         d="m 1446.3,2141.17 c -39.94,218.8 -66.84,252.41 -89.45,327.69 -22.35,74.39 -58.5,124.22 -103.25,141.43 -30.18,11.61 -180.65,65.91 -233.08,47.9 -58.336,-20.03 -109.223,-49.08 -145.282,-72.97 -35.121,-23.26 -61.679,-57.27 -75.84,-96.95 l -80.531,-225.69 140.852,-140.47 70.586,150.03 76.605,-179.56 -11.34,-181.53 439.39,-118.21 c 40.03,64 34.01,224.18 11.34,348.33"
         style="fill:#f03d5f;fill-opacity:1;fill-rule:nonzero;stroke:none"
         id="path190" /><path
         d="m 1124.77,1955.57 c -18.21,0 -36.6,2.52 -50.37,8.6 -25.05,11.06 -46.39,59.68 -36.07,85.06 22.24,-4.76 35.3,-11.13 49.06,-11.13 9.29,0 18.88,2.9 31.83,11.13 28.03,17.81 67.78,57.2 83.02,86.7 64.12,124.04 81.74,128.45 129.64,243.89 -19.39,-113.89 -22.49,-129.62 -41.89,-243.51 -6.66,-39.1 -26.13,-100.09 -53.97,-128.33 -20.63,-20.93 -40.85,-41.09 -69.45,-47.86 -12.02,-2.85 -26.85,-4.55 -41.8,-4.55"
         style="fill:#da314b;fill-opacity:1;fill-rule:nonzero;stroke:none"
         id="path192" /><path
         d="m 1013.95,2159.16 c -0.65,-0.36 -7.89,11.31 -19.403,30.26 -12.32,20.09 -27.969,45.6 -45.274,73.82 -17.734,27.97 -33.765,53.24 -46.386,73.15 -11.949,18.67 -19.25,30.3 -18.641,30.72 0.301,0.2 2.516,-2.43 6.281,-7.37 3.774,-4.94 9.043,-12.22 15.418,-21.3 12.75,-18.18 29.801,-43.69 47.746,-72.44 17.926,-28.75 33.332,-55.29 44.043,-74.73 5.356,-9.73 9.576,-17.66 12.346,-23.22 2.79,-5.56 4.18,-8.71 3.87,-8.89"
         style="fill:#17282f;fill-opacity:1;fill-rule:nonzero;stroke:none"
         id="path194" /><path
         d="m 1320.49,1954.85 c 0.11,-0.34 -3.56,-1.71 -10.31,-3.88 -3.37,-1.15 -7.53,-2.41 -12.46,-3.47 -4.92,-1.11 -10.48,-2.64 -16.78,-3.51 -12.5,-2.31 -27.63,-3.73 -44.47,-4.02 -16.82,-0.01 -35.35,1.27 -54.5,4.66 -19.12,3.6 -36.92,8.93 -52.66,14.88 -15.65,6.22 -29.3,12.89 -40.18,19.47 -5.59,3.04 -10.25,6.43 -14.46,9.21 -4.24,2.74 -7.68,5.38 -10.43,7.63 -5.55,4.43 -8.5,7 -8.28,7.28 0.6,0.81 12.94,-8.88 34.98,-20.91 10.97,-6.09 24.58,-12.32 40.07,-18.19 15.58,-5.61 33.1,-10.71 51.9,-14.24 18.82,-3.33 37.01,-4.74 53.56,-5 16.56,0.03 31.49,1.05 43.91,2.87 24.86,3.48 39.83,8.18 40.11,7.22"
         style="fill:#17282f;fill-opacity:1;fill-rule:nonzero;stroke:none"
         id="path196" /><path
         d="m 1144.21,2295.75 c -0.76,-3.91 -48.02,-97.91 -48.02,-97.91 l -222.772,117.37 -22.75,96.02 c -3.551,14.98 -12.766,28.01 -25.723,36.37 -13.738,8.86 -30.515,11.72 -46.406,7.89 l -65.691,-26.9 c -5.453,-2.23 -9.727,-6.92 -10.813,-12.71 -0.906,-4.87 0.281,-9.57 8.672,-8.91 16.324,1.27 50.313,4.88 50.313,4.88 l -15.512,-54.68 c -4.067,-14.33 -2.488,-29.69 4.402,-42.9 l 9.879,-18.93 21.715,-35.12 -0.445,-0.31 c 0,0 216.562,-222.46 338.161,-236.94 73.06,-8.69 155.88,196.19 155.88,196.19 l -130.89,76.59"
         style="fill:#c0776a;fill-opacity:1;fill-rule:nonzero;stroke:none"
         id="path198" /><path
         d="m 759.141,2408.16 c -0.239,0.35 1.675,2.32 5.406,4.79 3.676,2.37 9.57,5.49 16.859,5.2 7.473,-0.43 13.008,-5.28 14.942,-9.59 2.027,-4.47 0.66,-7.54 0.371,-7.37 -0.563,0.03 -0.211,2.86 -2.399,6.28 -2.062,3.33 -6.996,7.1 -13.074,7.43 -6.207,0.27 -11.734,-2.15 -15.566,-3.96 -3.867,-1.86 -6.27,-3.17 -6.539,-2.78"
         style="fill:#b85549;fill-opacity:1;fill-rule:nonzero;stroke:none"
         id="path200" /><path
         d="m 787.18,2374.06 c -0.465,-0.17 -1.434,1.81 -3.575,4.45 -2.113,2.63 -5.613,5.85 -10.308,7.72 -4.703,1.86 -9.469,1.89 -12.805,1.42 -3.363,-0.46 -5.429,-1.25 -5.652,-0.81 -0.199,0.35 1.562,1.93 5.156,3.05 3.531,1.13 9.027,1.53 14.496,-0.63 5.469,-2.17 9.207,-6.21 11.016,-9.45 1.851,-3.28 2.051,-5.64 1.672,-5.75"
         style="fill:#b85549;fill-opacity:1;fill-rule:nonzero;stroke:none"
         id="path202" /><path
         d="m 1190.42,2592.46 -60.32,-285.92 159.89,-96.09 61.44,175.71 c 0,0 -25.42,213.34 -161.01,206.3"
         style="fill:#f03d5f;fill-opacity:1;fill-rule:nonzero;stroke:none"
         id="path204" /><path
         d="m 1276.63,2587.43 c 0.08,-0.17 -1.33,-1.04 -4.08,-2.56 -2.75,-1.52 -6.82,-3.73 -12.15,-6.41 -10.62,-5.43 -26.14,-13.01 -45.65,-21.69 -38.93,-17.22 -94.37,-39.16 -158.97,-50.1 -64.628,-10.98 -124.96,-5.86 -166.206,5.62 -20.691,5.58 -36.883,11.94 -47.672,17.11 -5.48,2.39 -9.476,4.8 -12.269,6.24 -2.758,1.51 -4.16,2.39 -4.074,2.54 0.199,0.4 6.175,-2.4 17.156,-6.93 10.961,-4.56 27.187,-10.33 47.769,-15.39 41.024,-10.44 100.516,-14.9 164.436,-4.05 63.92,10.82 119.19,32.04 158.37,48.35 19.63,8.21 35.36,15.26 46.24,20.13 10.88,4.86 16.93,7.47 17.1,7.14"
         style="fill:#e7e8e5;fill-opacity:1;fill-rule:nonzero;stroke:none"
         id="path206" /><path
         d="m 1318.7,2555.85 c 0.09,-0.15 -1.43,-1.26 -4.44,-3.25 -3.53,-2.26 -7.92,-5.07 -13.27,-8.49 -5.76,-3.73 -12.91,-8.1 -21.57,-12.54 -8.6,-4.53 -18.2,-10.14 -29.45,-15 -5.59,-2.57 -11.42,-5.25 -17.49,-8.03 -6.1,-2.75 -12.68,-5.06 -19.36,-7.75 -13.32,-5.58 -28.06,-10.07 -43.48,-15.09 -31.12,-9.1 -66.01,-16.92 -103.18,-21.51 -37.24,-4.22 -72.999,-4.76 -105.386,-3.17 -16.168,1.29 -31.551,2.21 -45.804,4.53 -7.129,1.05 -14.063,1.76 -20.637,3.01 -6.547,1.29 -12.848,2.54 -18.875,3.73 -12.082,2.1 -22.715,5.32 -32.145,7.71 -9.457,2.3 -17.429,4.88 -23.89,7.16 -6.012,2.08 -10.934,3.79 -14.895,5.16 -3.379,1.23 -5.125,1.96 -5.066,2.13 0.058,0.17 1.918,-0.23 5.406,-1.14 4.023,-1.12 9.027,-2.51 15.145,-4.21 6.527,-1.98 14.546,-4.26 24.027,-6.28 9.449,-2.11 20.078,-5.06 32.137,-6.92 6.007,-1.08 12.285,-2.2 18.804,-3.37 6.551,-1.14 13.449,-1.75 20.539,-2.7 14.168,-2.12 29.457,-2.87 45.508,-4.02 32.149,-1.3 67.592,-0.63 104.512,3.55 36.87,4.56 71.48,12.17 102.44,20.94 15.33,4.86 30.02,9.16 43.3,14.52 6.67,2.59 13.24,4.78 19.34,7.42 6.07,2.66 11.91,5.23 17.51,7.68 11.28,4.61 20.94,9.96 29.63,14.22 8.74,4.18 16.01,8.27 21.9,11.71 5.55,3.08 10.09,5.61 13.75,7.64 3.17,1.69 4.89,2.52 4.99,2.36"
         style="fill:#e7e8e5;fill-opacity:1;fill-rule:nonzero;stroke:none"
         id="path208" /><path
         d="m 1289.99,2210.45 c -0.15,-0.26 -4.71,2.08 -12.98,6.61 -8.86,4.97 -20.69,11.6 -35.22,19.75 -30.49,17.57 -72.22,41.62 -120.26,69.3 l -1.54,0.9 0.34,1.72 c 4.29,21.36 8.9,44.27 13.65,67.92 7.28,35.57 14.19,69.41 20.51,100.32 3.34,15.38 5.98,30.08 9.03,43.84 3.17,13.72 7.21,26.42 12.83,37.16 11.02,21.9 28.62,33.76 41.35,37.86 6.45,2.08 11.75,2.61 15.29,2.52 3.54,-0.07 5.37,-0.44 5.35,-0.58 0.06,-0.66 -7.61,0.73 -19.97,-3.84 -12.06,-4.55 -28.56,-16.36 -38.73,-37.62 -5.22,-10.48 -8.96,-22.88 -11.91,-36.44 -2.67,-13.75 -5.52,-28.39 -8.52,-43.77 -6.19,-30.93 -12.98,-64.8 -20.1,-100.39 -4.82,-23.65 -9.49,-46.54 -13.84,-67.88 l -1.2,2.61 c 47.67,-28.31 89.07,-52.91 119.33,-70.88 14.22,-8.67 25.8,-15.74 34.48,-21.03 7.99,-4.99 12.26,-7.82 12.11,-8.08"
         style="fill:#17282f;fill-opacity:1;fill-rule:nonzero;stroke:none"
         id="path210" /><path
         d="m 1338.96,2394.61 c 0.64,-0.04 0.76,-10.25 -0.8,-26.66 -1.55,-16.39 -5.08,-38.97 -11.48,-63.33 -6.43,-24.36 -14.47,-45.75 -21.19,-60.79 -6.72,-15.05 -11.84,-23.87 -12.43,-23.59 -0.71,0.34 3.23,9.7 9.02,24.99 5.81,15.29 13.2,36.62 19.57,60.72 6.32,24.09 10.38,46.3 12.85,62.46 2.49,16.16 3.67,26.26 4.46,26.2"
         style="fill:#17282f;fill-opacity:1;fill-rule:nonzero;stroke:none"
         id="path212" /><path
         d="M 471.391,804.379 469.625,651.73 c 0,0 -155.766,-49.48 -158.844,-77.66 l 295.883,-14.058 12.516,237.75 -147.789,6.617"
         style="fill:#33535f;fill-opacity:1;fill-rule:nonzero;stroke:none"
         id="path214" /><path
         d="m 561.723,660.191 c 5.656,-1.832 9.3,-8.449 7.703,-14.179 -1.606,-5.723 -8.313,-9.492 -13.996,-7.75 -5.684,1.73 -10.309,9.547 -8.075,15.058 2.235,5.512 10.348,9.512 15.454,6.45"
         style="fill:#dadbd8;fill-opacity:1;fill-rule:nonzero;stroke:none"
         id="path216" /><path
         d="m 606.664,560.012 0.324,24.008 -283.808,4.5 c 0,0 -13.446,-5.098 -12.399,-14.45 l 295.883,-14.058"
         style="fill:#dadbd8;fill-opacity:1;fill-rule:nonzero;stroke:none"
         id="path218" /><path
         d="m 464.898,653.461 c -0.019,-1.449 7.172,-2.449 14.063,-7.441 7.019,-4.79 10.387,-11.231 11.742,-10.719 1.344,0.219 -0.398,8.961 -8.848,14.847 -8.386,5.954 -17.207,4.641 -16.957,3.313"
         style="fill:#17282f;fill-opacity:1;fill-rule:nonzero;stroke:none"
         id="path220" /><path
         d="m 433.258,642.102 c -0.403,-1.391 5.742,-4.141 10.359,-10.493 4.801,-6.199 5.731,-12.867 7.168,-12.879 1.348,-0.281 2.75,8.122 -3.144,15.911 -5.821,7.82 -14.286,8.839 -14.383,7.461"
         style="fill:#17282f;fill-opacity:1;fill-rule:nonzero;stroke:none"
         id="path222" /><path
         d="m 413.867,605.789 c 1.301,-0.367 3.653,6.762 0.317,14.84 -3.278,8.121 -9.942,11.562 -10.61,10.383 -0.875,-1.153 3.313,-5.602 5.949,-12.282 2.793,-6.621 2.915,-12.718 4.344,-12.941"
         style="fill:#17282f;fill-opacity:1;fill-rule:nonzero;stroke:none"
         id="path224" /><path
         d="m 469.16,688.199 c 0.547,-1.347 7.266,0.332 15.41,-0.597 8.16,-0.782 14.379,-3.821 15.196,-2.622 0.882,1.008 -5.063,6.641 -14.668,7.622 -9.594,1.046 -16.59,-3.231 -15.938,-4.403"
         style="fill:#17282f;fill-opacity:1;fill-rule:nonzero;stroke:none"
         id="path226" /><path
         d="m 616.293,742.879 1.207,22.953 h 0.059 l -1.266,-22.953"
         style="fill:#ba2c42;fill-opacity:1;fill-rule:nonzero;stroke:none"
         id="path228" /><path
         d="m 616.207,741.359 -145.48,5.582 0.351,27.207 146.422,-8.316 -1.207,-22.953 -0.086,-1.52"
         style="fill:#20353d;fill-opacity:1;fill-rule:nonzero;stroke:none"
         id="path230" /><path
         d="m 470.09,718.992 c -0.047,-0.59 5.617,-1.754 14.816,-0.621 4.582,0.57 10,1.809 15.735,4.02 2.859,1.121 5.8,2.48 8.718,4.109 1.407,0.82 3.067,1.621 4.645,3.27 1.672,1.441 2.766,5.23 1.023,7.66 -1.406,2.34 -4.035,3.461 -6.172,3.601 -2.175,0.18 -3.96,-0.172 -5.593,-0.492 -3.336,-0.648 -6.477,-1.598 -9.36,-2.73 -5.777,-2.297 -10.523,-5.34 -14.093,-8.321 -7.168,-6.027 -9.766,-11.316 -9.286,-11.617 0.633,-0.512 4.188,3.859 11.426,8.77 3.602,2.449 8.184,4.941 13.571,6.828 2.695,0.922 5.585,1.703 8.628,2.211 3.176,0.679 5.84,0.57 6.579,-0.86 l -0.407,-1.648 c -0.715,-0.813 -2.023,-1.582 -3.41,-2.383 -2.695,-1.578 -5.402,-2.949 -8.039,-4.098 -5.281,-2.332 -10.301,-3.832 -14.586,-4.82 -8.586,-1.961 -14.187,-2.09 -14.195,-2.879"
         style="fill:#17282f;fill-opacity:1;fill-rule:nonzero;stroke:none"
         id="path232" /><path
         d="m 471.871,716.84 c 0.5,-0.25 3.613,4.789 4.59,14.129 0.465,4.621 0.25,10.273 -1.258,16.312 -0.765,3.008 -1.859,6.121 -3.344,9.168 -1.593,3.012 -3.523,7.031 -9.093,7.93 -2.926,0.262 -5.465,-1.91 -6.387,-3.828 -1.074,-1.961 -1.352,-3.672 -1.777,-5.36 -0.711,-3.429 -0.809,-6.82 -0.485,-9.98 0.629,-6.34 2.957,-11.699 5.602,-15.609 5.418,-7.942 11.359,-9.95 11.508,-9.473 0.515,0.703 -4.391,3.742 -8.461,11.312 -2.008,3.739 -3.723,8.618 -4.028,14.149 -0.16,2.75 0.024,5.66 0.68,8.551 0.609,3.121 1.91,5.609 3.07,5.218 1.477,-0.039 3.864,-2.527 4.957,-5.089 1.395,-2.731 2.473,-5.5 3.285,-8.219 1.606,-5.43 2.168,-10.582 2.168,-14.922 -0.003,-8.699 -1.804,-14.039 -1.027,-14.289"
         style="fill:#17282f;fill-opacity:1;fill-rule:nonzero;stroke:none"
         id="path234" /><path
         d="m 1074.4,1909.46 c 0,0 -462.08,193.82 -605.177,202.12 -89.739,5.2 -157.606,-52.44 -145.407,-145.29 6.106,-46.45 133.813,-590.15 133.813,-590.15 L 652.41,1465.13 558.863,1841 938.438,1656.45 1074.4,1909.46"
         style="fill:#17282f;fill-opacity:1;fill-rule:nonzero;stroke:none"
         id="path236" /><path
         d="m 500.512,1936.16 c -1.508,-1.29 13.843,-21.02 29.902,-47.14 16.184,-26.05 26.965,-48.6 28.785,-47.84 1.66,0.64 -6.488,24.81 -23.008,51.41 -16.394,26.66 -34.378,44.77 -35.679,43.57"
         style="fill:#33535f;fill-opacity:1;fill-rule:nonzero;stroke:none"
         id="path238" /><path
         d="m 462.676,1914.56 c -0.973,-1.71 22.375,-16.51 49.711,-36.68 27.418,-20.08 48.511,-37.94 49.847,-36.5 1.246,1.29 -18.031,21.61 -45.824,41.98 -27.719,20.44 -52.887,32.77 -53.734,31.2"
         style="fill:#33535f;fill-opacity:1;fill-rule:nonzero;stroke:none"
         id="path240" /><path
         d="m 1434.96,1792.84 c 0,0 -58.15,-74.87 -113.57,-95.35 -69.64,-25.75 -584.574,-268.69 -584.574,-268.69 0,0 -93.386,-693.851 -86,-664.89 l -215.511,5.192 23.441,639.098 c 2.813,81.88 68.383,175.81 138.848,217.6 l 476.806,283.66 360.56,-116.62"
         style="fill:#17282f;fill-opacity:1;fill-rule:nonzero;stroke:none"
         id="path242" /><path
         d="m 454.648,1291.25 c 0.235,-0.01 0.532,3.01 0.879,8.76 0.336,6.43 0.778,14.77 1.313,25.14 1.246,21.77 2.43,53.44 8.531,91.88 6.348,38.08 17.992,84.12 46.555,126.69 14.179,21.2 33.176,40.44 55.398,57.22 22.207,16.83 47.223,31.57 73.121,46.26 103.7,59.43 193.215,119.99 259.383,161.53 32.961,20.98 59.777,37.71 78.41,49.12 8.825,5.44 15.926,9.83 21.414,13.21 4.878,3.06 7.378,4.77 7.258,4.97 -0.11,0.21 -2.84,-1.1 -7.933,-3.78 -5.086,-2.71 -12.594,-6.68 -22.082,-12.12 -19.067,-10.72 -46.297,-26.85 -79.614,-47.33 -66.867,-40.53 -156.832,-100.47 -260.203,-159.7 -25.93,-14.71 -51.211,-29.63 -73.793,-46.87 -22.582,-17.16 -42.129,-37.11 -56.555,-59.01 -29.042,-43.97 -40.285,-90.89 -46.109,-129.46 -5.547,-38.91 -5.988,-70.69 -6.422,-92.54 -0.015,-10.37 -0.027,-18.73 -0.039,-25.18 0.094,-5.76 0.254,-8.79 0.488,-8.79"
         style="fill:#33535f;fill-opacity:1;fill-rule:nonzero;stroke:none"
         id="path244" /><path
         d="m 1244.75,1719.72 c 0.76,0.86 -5.48,6.7 -13.19,17.75 -7.74,10.99 -16.26,27.77 -20.37,47.84 -4.01,20.11 -2.67,38.89 0.19,52.02 2.81,13.18 6.3,20.98 5.26,21.48 -0.62,0.36 -5.74,-6.82 -9.91,-20.3 -4.22,-13.37 -6.45,-33.31 -2.2,-54.55 4.33,-21.21 14.13,-38.71 23.21,-49.4 9.08,-10.8 16.58,-15.42 17.01,-14.84"
         style="fill:#33535f;fill-opacity:1;fill-rule:nonzero;stroke:none"
         id="path246" /><path
         d="m 514.469,769.102 c 0.117,-0.02 0.34,1.187 0.672,3.546 0.339,2.75 0.761,6.204 1.297,10.481 1.039,9.742 2.48,23.262 4.308,40.391 3.508,35.652 8.488,86.312 14.621,148.71 2.988,31.45 6.258,65.84 9.766,102.72 3.574,36.91 7.262,76.41 10.148,117.98 3.227,41.53 7.16,85.08 14.731,129.65 7.824,44.43 19.429,90.09 39.59,133.42 19.812,43.47 47.902,81.47 78.246,114.72 30.773,33.01 64.14,61.34 97.586,85.98 67.004,49.32 133.132,85.32 187.558,117.1 54.708,31.41 98.278,58.21 127.268,78.4 14.57,9.98 25.6,18.12 32.96,23.81 3.39,2.67 6.13,4.82 8.3,6.54 1.85,1.5 2.76,2.32 2.69,2.41 -0.07,0.1 -1.12,-0.54 -3.11,-1.86 -2.28,-1.57 -5.14,-3.54 -8.69,-5.99 -7.61,-5.31 -18.86,-13.1 -33.62,-22.73 -29.38,-19.45 -73.19,-45.54 -128.177,-76.41 -54.711,-31.23 -121.211,-66.85 -188.894,-116.23 -33.774,-24.67 -67.539,-53.15 -98.754,-86.5 -30.793,-33.6 -59.344,-72.12 -79.531,-116.39 -20.5,-44.08 -32.18,-90.33 -39.981,-135.15 -7.547,-44.94 -11.359,-88.7 -14.41,-130.3 -2.73,-41.63 -6.195,-81.07 -9.531,-118 -3.207,-36.9 -6.196,-71.3 -8.93,-102.752 -5.23,-62.468 -9.477,-113.187 -12.469,-148.867 -1.293,-17.191 -2.308,-30.742 -3.047,-40.511 -0.25,-4.321 -0.453,-7.778 -0.617,-10.559 -0.101,-2.379 -0.097,-3.602 0.02,-3.609"
         style="fill:#33535f;fill-opacity:1;fill-rule:nonzero;stroke:none"
         id="path248" /><path
         d="m 1021.95,3010.08 c -13.32,37.71 -57.52,61.48 -96.321,51.82 -8.914,-2.22 -17.656,-5.98 -26.84,-5.78 -11.269,0.24 -21.523,6.4 -32.578,8.61 -23.789,4.75 -49.805,-12.11 -55.18,-35.77 -18.902,3.89 -39.941,1.22 -54.957,-10.91 -15.015,-12.12 -21.957,-34.8 -12.84,-51.81 3.914,-7.29 10.301,-13.08 13.868,-20.56 5.882,-12.32 3.203,-27.1 7.332,-40.11 6.125,-19.28 26.504,-31.18 46.601,-33.47 20.102,-2.28 40.188,3.18 59.684,8.58"
         style="fill:#17282f;fill-opacity:1;fill-rule:nonzero;stroke:none"
         id="path250" /><path
         d="m 929.164,2614.59 c -2.527,19.34 -4.199,32.92 -4.199,32.92 0,0 -64.422,0.44 -90.442,80.27 -12.945,39.69 -21.511,106.8 -26.75,161.93 -4.714,49.62 32.793,93.18 82.571,95.78 l 171.196,8.96 3.68,-26.52 45.11,-329.15 c 6.89,-50.22 -28.42,-96.45 -78.68,-103.03 -50.052,-6.55 -95.943,28.78 -102.486,78.84"
         style="fill:#c0776a;fill-opacity:1;fill-rule:nonzero;stroke:none"
         id="path252" /><path
         d="m 832.023,2842.46 c 0.68,-5.58 5.973,-9.6 11.809,-8.99 5.832,0.61 10.012,5.61 9.32,11.19 -0.679,5.57 -5.968,9.6 -11.8,8.99 -5.832,-0.6 -10.012,-5.62 -9.329,-11.19"
         style="fill:#17282f;fill-opacity:1;fill-rule:nonzero;stroke:none"
         id="path254" /><path
         d="m 827.777,2857.27 c 1.524,-1.16 8.547,5.99 19.852,7.76 11.269,1.93 20.484,-2.57 21.492,-0.99 0.504,0.71 -1.215,2.97 -5.242,5.03 -3.973,2.05 -10.441,3.63 -17.477,2.48 -7.039,-1.16 -12.543,-4.69 -15.527,-7.88 -3.055,-3.22 -3.832,-5.89 -3.098,-6.4"
         style="fill:#17282f;fill-opacity:1;fill-rule:nonzero;stroke:none"
         id="path256" /><path
         d="m 939.438,2860.68 c 0.691,-5.58 5.976,-9.59 11.812,-8.99 5.824,0.61 10.012,5.61 9.32,11.2 -0.683,5.57 -5.976,9.59 -11.8,8.99 -5.836,-0.61 -10.016,-5.62 -9.332,-11.2"
         style="fill:#17282f;fill-opacity:1;fill-rule:nonzero;stroke:none"
         id="path258" /><path
         d="m 939.211,2872.82 c 1.516,-1.16 8.547,5.99 19.848,7.76 11.261,1.93 20.484,-2.57 21.492,-0.99 0.504,0.71 -1.199,2.97 -5.246,5.02 -3.973,2.06 -10.438,3.64 -17.473,2.49 -7.031,-1.15 -12.543,-4.69 -15.527,-7.88 -3.043,-3.22 -3.832,-5.88 -3.094,-6.4"
         style="fill:#17282f;fill-opacity:1;fill-rule:nonzero;stroke:none"
         id="path260" /><path
         d="m 911.516,2782.49 c -0.051,0.65 -7.27,0.75 -18.883,0.39 -2.938,-0.16 -5.758,-0.02 -6.559,1.88 -1.011,1.97 -0.297,5.27 0.567,8.85 1.605,7.42 3.281,15.19 5.043,23.34 6.882,33.17 11.367,60.26 10.031,60.52 -1.34,0.27 -8,-26.4 -14.879,-59.58 -1.625,-8.16 -3.184,-15.95 -4.656,-23.4 -0.575,-3.46 -1.864,-7.47 0.297,-11.57 1.121,-2.03 3.492,-3.26 5.418,-3.46 1.941,-0.27 3.566,-0.04 5.011,0.09 11.551,1.21 18.664,2.29 18.61,2.94"
         style="fill:#17282f;fill-opacity:1;fill-rule:nonzero;stroke:none"
         id="path262" /><path
         d="m 924.965,2647.51 c 0,0 55.66,5.2 105.025,46.69 0,0 -17.67,-60.48 -100.845,-65.85 l -4.18,19.16"
         style="fill:#b85549;fill-opacity:1;fill-rule:nonzero;stroke:none"
         id="path264" /><path
         d="m 946.016,2779.96 c -1.856,-0.19 0.074,-12.46 -9.043,-22.83 -9.09,-10.41 -22.395,-11.11 -22.211,-12.84 -0.051,-0.79 3.289,-1.92 8.832,-1.19 5.445,0.67 13.078,3.67 18.652,10.02 5.559,6.36 7.18,13.92 6.797,19.02 -0.348,5.2 -2.195,8.03 -3.027,7.82"
         style="fill:#17282f;fill-opacity:1;fill-rule:nonzero;stroke:none"
         id="path266" /><path
         d="m 929.246,2916.65 c 1.609,-2.9 12.656,0.36 26.168,0.86 13.508,0.79 24.816,-1.4 26.141,1.64 0.57,1.44 -1.75,4.04 -6.543,6.32 -4.762,2.29 -12.047,4.03 -20.149,3.65 -8.093,-0.39 -15.183,-2.82 -19.703,-5.55 -4.555,-2.73 -6.625,-5.54 -5.914,-6.92"
         style="fill:#17282f;fill-opacity:1;fill-rule:nonzero;stroke:none"
         id="path268" /><path
         d="m 826.738,2890.64 c 2.395,-2.25 9.754,1.65 19.098,3.27 9.285,1.94 17.562,1.02 18.965,3.99 0.59,1.44 -1.067,3.81 -4.918,5.69 -3.793,1.88 -9.82,2.95 -16.227,1.73 -6.394,-1.22 -11.605,-4.44 -14.441,-7.59 -2.891,-3.16 -3.555,-5.97 -2.477,-7.09"
         style="fill:#17282f;fill-opacity:1;fill-rule:nonzero;stroke:none"
         id="path270" /><path
         d="m 799.277,2925.61 c 0,0 45.301,-15.26 97.34,19.51 34.149,22.81 75.512,37.08 85.809,30.94 10.301,-6.14 17.031,-43.45 54.534,-49.85 0,0 6.6,-71.97 34.85,-65.8 20.13,4.4 8.36,83.81 -0.07,129.09 -3.38,18.14 -18.93,31.46 -37.38,32.18 l -52.723,2.04 -65.832,-18.37 -70.59,-19.24 -53.684,-22.27 7.746,-38.23"
         style="fill:#17282f;fill-opacity:1;fill-rule:nonzero;stroke:none"
         id="path272" /><path
         d="m 1065.48,2889.53 c 1.08,0.75 44.76,23.73 52.86,-23.96 8.08,-47.68 -41.46,-45.97 -41.78,-44.61 -0.31,1.35 -11.08,68.57 -11.08,68.57"
         style="fill:#c0776a;fill-opacity:1;fill-rule:nonzero;stroke:none"
         id="path274" /><path
         d="m 1088.06,2841.49 c 0.19,0.19 0.93,-0.44 2.45,-0.85 1.47,-0.39 3.9,-0.42 6.23,0.93 4.72,2.7 7.61,11.42 6.38,20.06 -0.61,4.36 -2.22,8.34 -4.34,11.49 -2.05,3.25 -4.72,5.3 -7.33,5.32 -2.62,0.16 -4.16,-1.67 -4.52,-3.11 -0.41,-1.44 0.05,-2.34 -0.19,-2.46 -0.11,-0.15 -1.15,0.62 -1.11,2.66 0.04,0.98 0.41,2.2 1.38,3.3 0.98,1.13 2.58,1.89 4.39,1.99 3.71,0.38 7.6,-2.45 9.92,-5.91 2.54,-3.46 4.45,-7.91 5.14,-12.81 1.32,-9.66 -2.07,-19.49 -8.63,-22.65 -3.21,-1.44 -6.17,-0.91 -7.81,-0.02 -1.68,0.92 -2.11,1.95 -1.96,2.06"
         style="fill:#b85549;fill-opacity:1;fill-rule:nonzero;stroke:none"
         id="path276" /><path
         d="m 822.191,3046.5 c 0.418,0.2 1.657,-2.52 5.043,-6.41 3.317,-3.89 9.344,-8.62 18.032,-11.57 8.672,-3.05 19.754,-3.89 31.757,-1.39 12.04,2.28 24.739,7.41 38.473,12.23 13.746,4.8 27.77,8.19 40.863,7.28 13.094,-0.58 24.496,-6.58 31.036,-13.96 6.785,-7.27 9.457,-15.4 9.531,-20.88 0.16,-5.55 -1.223,-8.37 -1.434,-8.29 -0.472,0.08 0.172,3.02 -0.59,8.09 -0.664,5.02 -3.625,12.17 -10.144,18.51 -6.434,6.46 -16.524,11.42 -28.68,11.74 -12.078,0.6 -25.379,-2.7 -38.875,-7.41 -13.535,-4.74 -26.598,-9.88 -39.316,-12.03 -12.645,-2.39 -24.836,-1.09 -33.899,2.66 -9.172,3.62 -15.332,9.23 -18.347,13.77 -3.09,4.54 -3.688,7.58 -3.45,7.66"
         style="fill:#33535f;fill-opacity:1;fill-rule:nonzero;stroke:none"
         id="path278" /><path
         d="m 983.313,3000.84 c -0.383,-0.31 -2.434,2.53 -7.391,5.96 -4.871,3.48 -13.242,6.8 -24.004,7.11 -10.809,0.52 -23.422,-2.6 -36.434,-8.9 -13.117,-5.99 -26.808,-14.89 -43.367,-20.28 -33.543,-10.78 -66.394,-1.97 -85.445,9.35 -9.77,5.63 -16.746,11.59 -21.047,16.13 -4.297,4.56 -6.254,7.43 -6.023,7.62 0.753,0.81 9.414,-10.37 28.828,-20.52 18.875,-10.13 50.347,-17.85 82.082,-7.63 15.683,5.07 29.398,13.75 42.98,19.7 13.434,6.23 27.231,9.28 38.621,8.2 11.426,-0.8 20.25,-4.95 25.032,-9.16 4.871,-4.17 6.363,-7.48 6.168,-7.58"
         style="fill:#33535f;fill-opacity:1;fill-rule:nonzero;stroke:none"
         id="path280" /><path
         d="m 835.215,2188.22 -232.231,197.94 -76.574,-17.32 c 0,0 80.699,-167.76 139.11,-229.25 0,0 57.718,-77.27 152.875,-43.87 95.152,33.41 16.82,92.5 16.82,92.5"
         style="fill:#c0776a;fill-opacity:1;fill-rule:nonzero;stroke:none"
         id="path282" /><path
         d="m 585.453,2604.1 h -98.699 c -14.934,0 -28.262,-17.31 -22.899,-31.46 l 99.254,-193.32 c 3.84,-7.49 11.563,-12.21 19.996,-12.21 l 120.329,0.25 c 13.796,1.86 18.832,17.18 13.113,25.48 l -95.766,189.27 c -6.601,13.46 -20.308,21.99 -35.328,21.99"
         style="fill:#33535f;fill-opacity:1;fill-rule:nonzero;stroke:none"
         id="path284" /><path
         d="M 578.789,2592.46 H 480.09 c -12.371,0 -20.367,-13.04 -14.742,-24.02 l 96.898,-189.12 c 3.84,-7.49 11.559,-12.21 19.988,-12.21 h 118.957 c 7.25,0 11.957,7.63 8.692,14.09 l -95.774,189.27 c -6.593,13.46 -20.3,21.99 -35.32,21.99"
         style="fill:#17282f;fill-opacity:1;fill-rule:nonzero;stroke:none"
         id="path286" /><path
         d="m 570.414,2513.29 -60.062,-24 -12.872,-48.4 28.93,-72.05 106.149,-15.44 -31.094,31.77 4,27.66 c 0,0 29.613,9.29 30.348,13.82 0.726,4.53 -3.672,19.73 -8.219,20.46 -4.543,0.73 -35.602,-10.84 -35.602,-10.84 0,0 36.77,29.11 35.738,33.78 -1.031,4.68 -4.976,16.63 -12.308,17.96 -7.336,1.33 -66.656,-26.63 -66.656,-26.63 l -9.633,-21.96 -8.406,35.12 c 0,0 52.714,14.78 39.687,38.75"
         style="fill:#c0776a;fill-opacity:1;fill-rule:nonzero;stroke:none"
         id="path288" /><path
         d="m 577.973,2399.8 c -0.356,-0.1 -1.481,2.09 -2.035,5.99 -0.571,3.88 -0.293,9.48 1.8,15.16 2.117,5.68 5.555,10.11 8.508,12.68 2.957,2.6 5.234,3.54 5.438,3.22 0.589,-0.71 -7.235,-6.34 -11.039,-16.97 -4.04,-10.55 -1.758,-19.91 -2.672,-20.08"
         style="fill:#b85549;fill-opacity:1;fill-rule:nonzero;stroke:none"
         id="path290" /><path
         d="m 549.43,2410.29 c -0.36,0.18 1.777,5.86 2.379,15.74 0.461,4.9 0.742,10.97 3.019,17.44 1.152,3.19 2.852,6.51 5.531,9.29 2.676,2.82 6.227,4.74 9.817,6.17 14.359,5.21 27.297,9.43 36.762,12.49 9.453,3.01 15.371,4.67 15.511,4.27 0.145,-0.4 -5.515,-2.8 -14.781,-6.34 -9.227,-3.56 -22.238,-8.18 -36.328,-13.29 -3.414,-1.37 -6.512,-3.05 -8.801,-5.42 -2.324,-2.34 -3.902,-5.25 -5.027,-8.17 -2.254,-5.9 -2.789,-11.78 -3.528,-16.69 -1.168,-9.98 -4.148,-15.74 -4.554,-15.49"
         style="fill:#b85549;fill-opacity:1;fill-rule:nonzero;stroke:none"
         id="path292" /><path
         d="m 535.645,2421.15 c -0.844,0.14 -0.672,5.44 0.386,11.84 1.055,6.4 2.598,11.48 3.442,11.34 0.843,-0.14 0.675,-5.44 -0.387,-11.85 -1.055,-6.4 -2.598,-11.47 -3.441,-11.33"
         style="fill:#b85549;fill-opacity:1;fill-rule:nonzero;stroke:none"
         id="path294" /><path
         d="m 534.031,2555.98 c 0,-6.94 5.633,-12.57 12.574,-12.57 6.95,0 12.579,5.63 12.579,12.57 0,6.95 -5.629,12.58 -12.579,12.58 -6.941,0 -12.574,-5.63 -12.574,-12.58"
         style="fill:#fafaf9;fill-opacity:1;fill-rule:nonzero;stroke:none"
         id="path296" /><path
         d="m 188.207,649.84 c 31.59,-8.559 57.438,-32.84 72.832,-61.719 15.402,-28.871 21.234,-62.019 22.277,-94.73 2,-63.289 -24.23,-131.289 -55.078,-186.582 -59.09,38.121 -82.769,116.191 -92.297,156.543 -15.05,63.789 -3.531,188.207 52.266,186.488"
         style="fill:#f03d5f;fill-opacity:1;fill-rule:nonzero;stroke:none"
         id="path298" /><path
         d="m 304.137,212.922 c -13.512,33.957 -4.489,74.699 19.015,102.687 23.512,28 59.77,43.68 96.243,46.18 16.867,1.152 35.593,-1.098 47.144,-13.437 10.797,-11.532 12.406,-29.602 7.176,-44.512 -5.231,-14.91 -16.258,-27.098 -28.293,-37.34 -41.281,-35.109 -87.672,-61.52 -141.285,-53.578"
         style="fill:#f03d5f;fill-opacity:1;fill-rule:nonzero;stroke:none"
         id="path300" /><path
         d="m 264.688,12.2305 c -0.329,0.0312 -0.27,4.6601 0.007,13.039 0.34,9.2422 0.778,21.1719 1.305,35.5 1.594,29.7422 3.008,72.2225 19.609,115.6605 16.321,43.3 43.036,77.32 67.008,95.769 11.875,9.391 22.571,15.5 30.242,19 3.762,1.903 6.918,2.883 8.965,3.723 2.082,0.758 3.196,1.09 3.258,0.949 0.52,-0.973 -17.527,-6.992 -40.41,-26.18 -23.008,-18.75 -48.719,-52.332 -64.774,-94.902 C 273.613,132.25 271.645,90.2813 269.242,60.5898 268.18,45.6289 267.309,33.5117 266.48,25.1719 c -0.828,-8.3633 -1.492,-12.961 -1.792,-12.9414"
         style="fill:#17282f;fill-opacity:1;fill-rule:nonzero;stroke:none"
         id="path302" /><path
         d="m 187.805,554.332 c 0.156,0.008 0.648,-1.871 1.453,-5.5 0.851,-4.113 1.937,-9.383 3.285,-15.91 2.773,-13.832 6.535,-33.891 10.969,-58.723 8.871,-49.648 20.176,-118.418 30.941,-194.629 10.746,-76.238 18.922,-145.461 24.133,-195.6403 2.609,-25.0703 4.555,-45.3984 5.711,-59.4492 0.508,-6.6407 0.922,-12.0117 1.246,-16.19144 0.234,-3.70703 0.277,-5.66015 0.121,-5.67968 -0.156,-0.00782 -0.512,1.90234 -1.047,5.58203 -0.539,4.16019 -1.234,9.49999 -2.094,16.10939 -1.761,14.5703 -4.187,34.668 -7.164,59.2695 -6.035,50.0587 -14.711,119.1597 -25.449,195.3597 -10.762,76.16 -21.547,144.961 -29.601,194.73 -3.95,24.461 -7.184,44.461 -9.524,58.949 -1,6.59 -1.808,11.911 -2.441,16.063 -0.508,3.668 -0.696,5.629 -0.539,5.66"
         style="fill:#17282f;fill-opacity:1;fill-rule:nonzero;stroke:none"
         id="path304" /><path
         d="m 218.945,161.82 c -22.894,73.59 -83.578,134.301 -157.1559,157.239 -18.7422,5.839 -42.418,8 -54.92191,-7.129 C -5.66016,296.781 0.980469,273.82 10.6797,256.719 51.0195,185.559 137.648,143.781 218.445,156.512"
         style="fill:#f03d5f;fill-opacity:1;fill-rule:nonzero;stroke:none"
         id="path306" /><path
         d="m 78.8789,261.25 c 0.0899,0.289 4.2891,-0.871 11.8281,-3.23 3.7813,-1.168 8.4063,-2.61 13.547,-4.879 5.141,-2.25 11.25,-4.289 17.465,-7.7 6.308,-3.211 13.316,-6.582 20.316,-11.121 7.258,-4.129 14.485,-9.34 22.063,-14.871 14.851,-11.429 30.172,-25.429 43.949,-42.187 13.629,-16.883 24.308,-34.68 32.422,-51.602 3.793,-8.578 7.437,-16.73 9.886,-24.711 2.95,-7.8201 4.723,-15.3787 6.458,-22.2576 1.972,-6.8125 2.578,-13.2305 3.617,-18.7422 1.058,-5.5273 1.402,-10.3594 1.648,-14.3086 0.563,-7.8906 0.727,-12.2304 0.406,-12.25 -1.031,-0.1093 -1.761,17.418 -8.824,44.5078 -1.902,6.7305 -3.832,14.1407 -6.887,21.793 -2.57,7.8086 -6.285,15.7576 -10.117,24.1606 -8.195,16.519 -18.781,33.918 -32.16,50.507 -13.539,16.461 -28.496,30.301 -42.969,41.731 -7.386,5.539 -14.422,10.781 -21.492,14.992 -6.816,4.617 -13.644,8.109 -19.781,11.457 -24.8712,12.871 -41.7071,17.762 -41.3751,18.711"
         style="fill:#17282f;fill-opacity:1;fill-rule:nonzero;stroke:none"
         id="path308" /></g></g></svg>
